<svg width="30" height="30" viewBox="0 0 30 30" xmlns="http://www.w3.org/2000/svg">
<path fill-rule="evenodd" clip-rule="evenodd" d="M8 8V9V22H26.0312C26.5515 22 27 21.5672 27 21V8H8ZM8 24H6H4C2.34315 24 1 22.6569 1 21V11C1 9.89543 1.89543 9 3 9H6V7.66667C6 6.7611 6.72674 6 7.65625 6H27.3438C28.2732 6 29 6.76105 29 7.66667V21C29 22.6419 27.6856 24 26.0312 24H8ZM6 11H3V21C3 21.5523 3.44772 22 4 22H6V11ZM11 11V13H16V11H11ZM10 9C9.44772 9 9 9.44772 9 10V14C9 14.5523 9.44771 15 10 15H17C17.5523 15 18 14.5523 18 14V10C18 9.44772 17.5523 9 17 9H10ZM19 11C19 10.4477 19.4477 10 20 10H25C25.5523 10 26 10.4477 26 11C26 11.5523 25.5523 12 25 12H20C19.4477 12 19 11.5523 19 11ZM20 13C19.4477 13 19 13.4477 19 14C19 14.5523 19.4477 15 20 15H25C25.5523 15 26 14.5523 26 14C26 13.4477 25.5523 13 25 13H20ZM9 17C9 16.4477 9.44772 16 10 16H25C25.5523 16 26 16.4477 26 17C26 17.5523 25.5523 18 25 18H10C9.44771 18 9 17.5523 9 17ZM10 19C9.44772 19 9 19.4477 9 20C9 20.5523 9.44771 21 10 21H25C25.5523 21 26 20.5523 26 20C26 19.4477 25.5523 19 25 19H10Z" />
</svg>
