<svg width="36" height="36" viewBox="0 0 36 36" xmlns="http://www.w3.org/2000/svg">
<path fill-rule="evenodd" clip-rule="evenodd" d="M34 18C34 26.8 26.8 34 18 34C9.2 34 2 26.8 2 18C2 9.2 9.2 2 18 2C26.8 2 34 9.2 34 18ZM18 30.8C21.04 30.8 23.76 29.84 25.84 28.08C25.2 26.64 21.04 25.2 18 25.2C14.96 25.2 10.8 26.64 10.16 28.08C12.24 29.84 14.96 30.8 18 30.8ZM30.8 18C30.8 10.96 25.04 5.2 18 5.2C10.96 5.2 5.2 10.96 5.2 18C5.2 20.88 6.16 23.6 7.76 25.68C10.16 22.96 15.6 22 18 22C20.4 22 26 22.96 28.24 25.68C29.84 23.6 30.8 20.88 30.8 18ZM23.6 14C23.6 17.04 21.04 19.6 18 19.6C14.96 19.6 12.4 17.04 12.4 14C12.4 10.96 14.96 8.4 18 8.4C21.04 8.4 23.6 10.96 23.6 14ZM20.4 14C20.4 12.72 19.28 11.6 18 11.6C16.72 11.6 15.6 12.72 15.6 14C15.6 15.28 16.72 16.4 18 16.4C19.28 16.4 20.4 15.28 20.4 14Z" />
</svg>
