<svg width="36" height="36" viewBox="0 0 36 36" xmlns="http://www.w3.org/2000/svg">
<path fill-rule="evenodd" clip-rule="evenodd" d="M28.0586 24.5466C29.2864 22.6639 30 20.4153 30 18C30 11.3726 24.6274 6 18 6C11.3726 6 6 11.3726 6 18C6 20.155 6.56808 22.1774 7.56265 23.9255C10.1493 21.4928 13.6496 20 17.5 20C21.6681 20 25.426 21.7493 28.0586 24.5466ZM26.8119 26.1457C24.537 23.6037 21.2101 22 17.5 22C14.0646 22 10.9577 23.3751 8.71039 25.5968C10.911 28.2847 14.2552 30 18 30C21.4832 30 24.6197 28.516 26.8119 26.1457ZM18 32C25.732 32 32 25.732 32 18C32 10.268 25.732 4 18 4C10.268 4 4 10.268 4 18C4 25.732 10.268 32 18 32ZM18 16C19.6569 16 21 14.6569 21 13C21 11.3431 19.6569 10 18 10C16.3431 10 15 11.3431 15 13C15 14.6569 16.3431 16 18 16ZM18 18C20.7614 18 23 15.7614 23 13C23 10.2386 20.7614 8 18 8C15.2386 8 13 10.2386 13 13C13 15.7614 15.2386 18 18 18Z" />
</svg>
