<svg width="890" height="233" viewBox="0 0 890 233" fill="none" xmlns="http://www.w3.org/2000/svg">
<path d="M493.239 147.972V167.365H454.458V179.482H485.967V198.872H454.458V212.202H493.239V232.805H429.009V147.972H493.239Z" fill="#064C7F"/>
<path fill-rule="evenodd" clip-rule="evenodd" d="M160.36 232.805L165.553 216.078H188.66L193.535 232.805H220.564L193.482 147.972H165.5L133.308 232.805H160.36ZM170.058 197.579L177.054 172.984L180.552 185.282L184.049 197.579H170.058Z" fill="#064C7F"/>
<path d="M36.3569 232.805V147.972H69.4491L81.3623 191.704L93.2754 147.972H126.037V232.805H103.865V173.619L88.9735 232.805H73.4201L58.8596 173.619V232.805H36.3569Z" fill="#064C7F"/>
<path d="M336.905 232.805H311.456V147.972H336.905V232.805Z" fill="#064C7F"/>
<path fill-rule="evenodd" clip-rule="evenodd" d="M300.057 185.959C302.037 182.208 303.027 177.883 303.027 172.984C303.027 165.481 300.318 159.436 294.898 154.851C289.479 150.265 281.924 147.972 272.127 147.972H227.835V232.805H253.285V200.084H262.122L274.524 232.805H303.392L288.02 195.808C294.065 192.994 298.077 189.711 300.057 185.959ZM272.908 180.227C270.928 181.582 268.27 181.905 265.039 181.905H259.162H253.285V166.151H265.925C272.595 166.151 275.93 168.764 275.93 174.183C275.878 176.84 274.888 178.82 272.908 180.227Z" fill="#064C7F"/>
<path d="M346.6 147.972V232.805H368.447V182.168L397.467 232.805H419.313V147.972H398.445V192.69L372.36 147.972H346.6Z" fill="#064C7F"/>
<path fill-rule="evenodd" clip-rule="evenodd" d="M187.607 216.077C187.676 215.663 187.875 215.306 188.341 215.028C188.937 214.671 189.149 214.904 189.437 215.22L189.47 215.257C192.267 218.31 196.105 218.279 197.328 218.27H197.328L197.329 218.27C197.39 218.269 197.444 218.269 197.491 218.269C197.928 218.269 198.111 218.655 198.316 219.09C198.582 219.651 198.886 220.295 199.826 220.295C201.16 220.295 201.049 218.043 200.826 216.918C202.068 216.08 202.411 215.371 202.651 214.874C202.799 214.57 202.908 214.345 203.161 214.217C203.401 214.095 203.727 214.236 204.078 214.388C204.702 214.657 205.402 214.959 205.828 213.879C206.495 212.19 204.494 211.515 203.161 211.177C202.367 210.977 201.692 210.059 201.064 209.206L201.064 209.206C200.636 208.625 200.231 208.074 199.826 207.801C198.825 207.125 197.825 206.112 199.492 206.112C201.16 206.112 203.494 204.762 200.826 204.086C198.158 203.411 195.824 204.086 194.49 204.762C193.783 205.12 193.638 205.098 193.31 205.049C193.02 205.006 192.586 204.941 191.489 205.099C190.222 205.283 189.447 205.565 188.842 205.785L188.842 205.785C188.333 205.971 187.945 206.112 187.487 206.112C187.051 206.112 186.804 205.984 186.527 205.839C186.169 205.652 185.759 205.437 184.819 205.437C182.971 205.437 180.818 206.45 181.818 207.801C182.193 208.307 183.177 208.687 184.125 209.054C184.777 209.306 185.412 209.552 185.82 209.827C186.82 210.502 186.564 211.915 185.486 213.204C185.012 213.767 184.381 214.896 184.461 216.077H187.607Z" fill="#A3ACC9"/>
<path fill-rule="evenodd" clip-rule="evenodd" d="M170.367 196.495L170.058 197.579H170.102C169.903 197.869 169.577 197.942 169.059 197.659C167.281 196.69 165.968 193.949 165.533 192.7C165.263 190.757 166.276 188.849 167.027 187.926C168.633 185.937 169.014 183.756 167.524 182.714C166.916 182.289 165.97 181.91 164.998 181.521C163.585 180.955 162.119 180.368 161.56 179.587C160.069 177.502 163.278 175.938 166.033 175.938C167.433 175.938 168.044 176.269 168.578 176.558C168.991 176.782 169.358 176.981 170.008 176.981C170.69 176.981 171.268 176.763 172.028 176.476L172.028 176.476C172.928 176.136 174.084 175.7 175.972 175.417C176.114 175.396 176.25 175.377 176.378 175.361L172.082 190.465C171.872 190.455 171.617 190.533 171.28 190.742C170.467 191.246 170.2 191.917 170.148 192.7C170.105 192.916 170.16 193.436 170.227 194.065C170.308 194.828 170.406 195.752 170.367 196.495ZM183.525 195.736C183.993 195.751 184.383 195.748 184.674 195.745H184.674H184.674C184.765 195.745 184.846 195.744 184.917 195.744C185.568 195.744 185.84 196.34 186.146 197.011C186.542 197.878 186.995 198.871 188.396 198.871C190.383 198.871 190.218 195.397 189.886 193.659C191.737 192.365 192.247 191.272 192.606 190.505C192.825 190.035 192.988 189.687 193.365 189.49C193.723 189.302 194.21 189.52 194.732 189.754C195.662 190.169 196.705 190.636 197.341 188.968C198.335 186.362 195.353 185.32 193.365 184.799C192.183 184.489 191.176 183.072 190.241 181.756L190.241 181.756C189.603 180.859 188.999 180.009 188.396 179.587C186.905 178.544 185.414 176.981 187.899 176.981C190.383 176.981 193.862 174.896 189.886 173.853C185.911 172.811 182.432 173.853 180.444 174.896C179.39 175.449 179.175 175.415 178.686 175.339C178.456 175.304 178.167 175.259 177.702 175.261L180.552 185.281L183.525 195.736Z" fill="#A3ACC9"/>
<path fill-rule="evenodd" clip-rule="evenodd" d="M65.927 202.346L65.3613 200.047C65.5175 199.935 65.716 199.846 65.9548 199.789C66.6543 199.621 67.1729 200.149 67.7348 200.721L67.7348 200.721C68.2966 201.293 68.9017 201.909 69.774 201.917C71.5186 201.933 71.1791 200.883 69.7929 199.824C69.5816 199.662 69.3702 199.509 69.1649 199.36C68.0238 198.532 67.0725 197.842 67.3789 196.661C67.7404 195.269 69.4818 195.633 70.1734 196.338C70.8649 197.042 71.2201 196.347 71.5816 194.955C71.9432 193.562 72.9994 192.525 74.043 192.883C75.0865 193.242 75.4134 195.687 75.0487 197.429C74.8056 198.589 75.194 198.515 76.1002 198.343C76.5533 198.256 77.1359 198.145 77.8337 198.152C79.9272 198.17 80.2696 198.871 80.2666 199.22C80.2624 199.714 79.3877 199.867 78.17 199.55C76.7775 199.189 74.6714 200.566 73.6121 201.952C72.5527 203.338 75.6961 203.017 77.0949 202.681C78.4937 202.345 78.8269 204.093 76.7334 204.074C74.6399 204.055 72.5401 204.734 71.8296 206.123C71.1192 207.512 74.9636 206.849 75.6645 206.507C76.3655 206.164 78.4588 206.183 77.7517 207.223C77.3579 207.803 75.5995 208.173 73.6478 208.584C72.6834 208.787 71.6717 209.001 70.7543 209.254C69.8861 209.493 68.9844 210.215 68.098 211.171L67.0713 206.998C67.5586 207.084 67.9835 206.976 67.9916 206.088C68.0042 204.693 68.0136 203.646 66.2785 202.583C66.1521 202.506 66.035 202.427 65.927 202.346ZM69.2164 215.717C69.8236 215.453 70.5238 215.333 71.0908 215.3C72.3468 215.227 74.1321 214.251 73.7583 212.819C73.3845 211.387 71.35 211.408 70.6961 211.833C70.2583 212.118 69.1785 212.571 68.4378 212.552L69.2164 215.717Z" fill="#A3ACC9"/>
<path fill-rule="evenodd" clip-rule="evenodd" d="M47.2806 232.804L58.8596 232.804V229.269C57.7389 230.451 56.3713 231.467 54.9247 231.679C51.3177 232.206 52.1501 229.041 53.8149 227.459C53.8925 227.385 53.97 227.312 54.0471 227.239L54.0481 227.238C55.6233 225.745 57.0258 224.417 56.0345 223.239C54.9247 221.92 53.2601 222.712 52.705 223.766C51.8015 225.484 50.4853 224.558 51.3177 223.239C51.5167 222.924 51.7633 222.593 52.0158 222.255C52.8194 221.179 53.6824 220.023 53.2601 219.019C52.705 217.701 51.0402 218.228 50.4854 218.492C49.9306 218.756 48.2658 219.283 49.3756 216.909C50.4854 214.536 49.3755 213.481 48.8206 213.217C48.2657 212.953 46.6009 212.953 45.7685 214.008C44.9362 215.063 44.2288 213.626 44.9362 212.953C45.7685 212.162 46.0458 211.107 45.491 210.843C44.9362 210.58 43.9736 210.889 43.5487 211.898C42.9938 213.217 41.6065 213.481 41.0516 211.635C40.4966 209.789 38.8319 209.261 37.722 210.316C37.1671 210.843 36.6122 211.898 37.4446 212.953C38.1575 213.857 38.2599 214.567 36.3569 214.586V218.388C36.671 218.352 37.0316 218.299 37.4446 218.228C39.8863 217.806 39.6895 219.019 39.3868 220.074C39.1094 221.041 39.1094 222.712 40.4967 223.503C41.022 223.802 41.6769 223.719 42.2624 223.644C42.802 223.575 43.2826 223.514 43.5488 223.766C43.9467 224.145 43.6108 224.694 43.2932 225.212C42.828 225.972 42.4024 226.668 44.3811 226.668C44.813 226.668 45.2356 226.663 45.6421 226.659L45.6423 226.659C48.3699 226.63 50.3772 226.609 49.6529 227.986C49.3169 228.625 48.5738 228.963 47.8436 229.295C46.7652 229.786 45.715 230.263 46.0459 231.679C46.1547 232.144 46.6101 232.513 47.2806 232.804Z" fill="#A3ACC9"/>
<path fill-rule="evenodd" clip-rule="evenodd" d="M103.865 185.429C104.453 184.715 104.65 184.372 104.864 183.782C105.127 183.047 105.371 181.585 105.373 180.713C105.376 179.813 105.155 178.804 104.655 177.446L104.595 177.284L104.595 177.282C104.521 177.081 104.443 176.867 104.403 176.756C104.27 176.394 104.086 175.81 104.032 175.575C103.89 174.945 103.991 173.883 104.286 172.949C104.371 172.677 104.477 172.389 104.604 172.086C105.209 173.209 105.522 173.967 105.784 174.897C106.025 175.749 106.135 176.436 106.194 177.438C106.274 178.853 106.169 180.008 105.876 180.908C105.806 181.133 105.645 181.544 105.519 181.822C105.237 182.452 105.141 182.799 105.134 183.208C105.116 184.145 105.273 185.017 105.574 185.663C105.79 186.123 106.045 186.47 106.58 187.021C106.833 187.278 106.995 187.389 107.088 187.363C107.158 187.343 107.226 187.225 107.231 187.113C107.241 186.868 107.165 186.737 106.744 186.285C106.267 185.775 106.084 185.506 105.921 185.076C105.784 184.712 105.689 183.979 105.709 183.428C105.719 183.113 105.778 182.923 106.062 182.297C106.428 181.483 106.648 180.668 106.741 179.726C106.794 179.776 106.874 179.773 106.921 179.708C106.976 179.63 106.991 179.524 107.013 178.986C107.024 178.747 107.08 178.263 107.164 177.667C107.237 177.15 107.308 176.613 107.318 176.47C107.408 175.402 107.266 174.439 106.904 173.693C106.626 173.115 106.555 172.893 106.503 172.45C106.423 171.756 106.475 171.222 106.672 170.745C106.719 170.797 106.77 170.85 106.824 170.907C107.211 171.315 107.558 171.738 107.726 172.007C108.039 172.506 108.172 173.076 108.154 173.866C108.144 174.312 108.093 174.54 107.871 175.141C107.58 175.917 107.527 176.889 107.716 177.945C107.74 178.086 107.86 178.614 107.98 179.122C108.119 179.707 108.22 180.184 108.253 180.421C108.325 180.955 108.35 181.059 108.412 181.132C108.478 181.208 108.588 181.181 108.623 181.081C108.653 180.994 108.613 180.545 108.539 180.135C108.514 179.994 108.396 179.473 108.278 178.973C108.159 178.476 108.039 177.923 108.009 177.743C107.867 176.836 107.929 176.139 108.222 175.321C108.224 175.513 108.228 175.721 108.235 175.956C108.294 177.972 108.622 179.331 109.369 180.65C109.71 181.248 109.786 181.43 109.826 181.743C109.896 182.291 109.87 183.029 109.768 183.404C109.645 183.848 109.487 184.132 109.06 184.685C108.683 185.174 108.62 185.311 108.652 185.554C108.667 185.665 108.746 185.776 108.818 185.789C108.912 185.807 109.063 185.682 109.292 185.402C109.773 184.804 109.995 184.435 110.168 183.956C110.227 183.79 110.276 183.61 110.315 183.42C110.468 184.022 110.66 184.615 110.839 184.997C111.153 185.664 111.413 185.993 112.369 186.922C113.113 187.648 113.134 187.667 113.236 187.638C113.352 187.605 113.396 187.539 113.403 187.377C113.417 187.074 113.265 186.878 112.342 186.001C111.905 185.587 111.791 185.459 111.608 185.202C111.285 184.743 111.028 184.093 110.818 183.192C110.621 182.356 110.58 182.006 110.598 181.43C110.613 180.986 110.649 180.697 110.763 180.135L110.765 180.124C110.799 179.953 110.82 179.844 110.844 179.736C110.887 179.546 110.936 179.357 111.073 178.836L111.098 178.738C111.495 177.234 111.551 176.812 111.461 176.032C111.347 175.071 111.098 174.266 110.597 173.241C110.31 172.657 110.086 172.279 109.474 171.355C109.64 170.898 109.848 170.394 110.117 169.788C110.129 169.84 110.143 169.892 110.157 169.944C110.312 170.491 110.532 170.88 110.997 171.406C110.844 172.119 110.866 172.813 111.066 173.215C111.391 173.869 111.511 174.285 111.6 175.065C111.735 176.252 111.631 177.466 111.332 178.187C111.194 178.519 111.19 178.647 111.321 178.687C111.392 178.708 111.422 178.698 111.48 178.62C111.683 178.348 111.894 177.555 111.954 176.827C111.971 176.621 111.982 176.373 111.988 176.122C112.051 176.238 112.133 176.379 112.242 176.563C112.945 177.757 113.191 178.738 112.953 179.422C112.908 179.55 112.833 179.71 112.781 179.778C112.677 179.927 112.631 180.071 112.659 180.17C112.669 180.206 112.694 180.244 112.723 180.275C112.617 180.586 112.545 180.895 112.485 181.261C112.354 182.097 112.408 182.637 112.69 183.328C112.784 183.555 112.927 183.935 113.006 184.17C113.086 184.406 113.195 184.728 113.251 184.883C113.4 185.324 113.546 185.436 113.719 185.25C113.843 185.117 113.884 184.907 113.831 184.68C113.774 184.437 113.373 183.281 113.197 182.859C113.013 182.411 112.949 182.01 112.99 181.539C113.04 180.974 113.271 180.277 113.609 179.68C114.026 178.945 114.039 178.919 114.085 178.667C114.174 178.189 114.138 177.676 113.99 177.27C113.882 176.977 113.705 176.675 113.399 176.265C112.738 175.38 112.591 174.995 112.678 174.384C112.743 173.935 112.893 173.547 113.196 173.05C114.008 174.137 114.437 174.943 114.55 175.582C114.572 175.701 114.588 175.842 114.601 176.067C114.593 176.305 114.603 176.539 114.629 176.763C114.632 176.857 114.635 176.959 114.638 177.069C114.657 177.823 114.645 178.04 114.542 178.648C114.419 179.389 114.286 180.511 114.269 180.923C114.24 181.793 114.467 182.403 115.281 183.635C115.551 184.043 115.812 184.512 115.948 184.827C116.1 185.182 116.257 185.737 116.321 186.138C116.395 186.614 116.443 186.756 116.563 186.866C116.741 187.022 116.908 186.9 116.921 186.605C116.932 186.347 116.846 185.866 116.693 185.326C116.463 184.512 116.293 184.158 115.61 183.086C115.105 182.288 114.987 182.055 114.899 181.689C114.851 181.481 114.834 181.346 114.841 181.16C114.853 180.832 114.996 179.662 115.11 178.981C115.149 178.748 115.185 178.484 115.203 178.32C115.237 178.365 115.272 178.408 115.308 178.45C115.465 178.628 115.58 178.673 115.668 178.585C115.799 178.456 115.762 178.281 115.551 178.053C115.42 177.913 115.307 177.734 115.214 177.529C115.203 176.896 115.172 176.046 115.145 175.809C115.124 175.62 115.085 175.425 115.028 175.223C115.059 175.066 115.094 174.927 115.127 174.836C115.158 174.753 115.342 174.381 115.536 174.007C115.844 173.414 115.994 173.077 116.088 172.733C116.132 173.009 116.126 173.289 116.074 173.735C115.97 174.635 115.97 175.485 116.077 176.05C116.138 176.378 116.185 176.496 116.431 176.961C116.596 177.276 116.65 177.404 116.756 177.752C116.974 178.444 117.029 178.971 117.021 180.347C116.982 180.46 116.944 180.592 116.92 180.692C116.793 181.244 116.875 181.645 117.226 182.172C117.43 182.482 117.484 182.605 117.543 182.881C117.604 183.174 117.744 183.252 117.909 183.089C118.003 182.998 118.015 182.972 118.056 182.755C118.091 182.548 118.091 182.492 118.041 182.278C117.995 182.084 117.937 181.965 117.764 181.7C117.497 181.297 117.445 181.179 117.443 180.982C117.441 180.809 117.454 180.767 117.729 180.054C118.363 178.407 118.515 176.779 118.178 175.218C118.045 174.594 117.873 174.056 117.515 173.106C117.19 172.246 117.098 171.896 117.11 171.552C117.114 171.475 117.127 171.381 117.158 171.239C117.3 171.818 117.622 172.46 118.839 174.675C120.035 176.854 120.317 177.851 120.056 178.984C119.981 179.321 119.934 179.441 119.618 180.118C119.264 180.875 119.132 181.491 119.099 182.532C119.088 182.863 119.095 183.342 119.112 183.596C119.139 184.007 119.157 184.117 119.264 184.543C119.467 185.335 119.707 185.834 120.132 186.347C120.263 186.503 120.455 186.74 120.565 186.878C120.868 187.264 120.998 187.375 121.115 187.342C121.335 187.28 121.307 186.902 121.055 186.53C120.985 186.43 120.802 186.199 120.646 186.017C120.229 185.531 120.099 185.321 119.921 184.858C119.795 184.524 119.692 184.031 119.671 183.631C119.643 183.134 119.686 182.202 119.755 181.808C119.835 181.342 119.923 181.087 120.208 180.493C120.646 179.573 120.789 178.838 120.698 177.948C120.67 177.693 120.634 177.527 120.502 177.063C120.24 176.135 119.96 175.541 118.667 173.187C118.019 172.007 117.867 171.68 117.732 171.213C117.647 170.921 117.613 170.754 117.604 170.592C117.573 170.104 117.621 169.638 117.778 169.02C117.859 168.743 117.932 168.493 117.996 168.266L118.136 167.817L118.301 167.808C119.885 166.761 120.626 164.706 119.366 161.112C118.106 157.518 113.093 154.431 106.845 154.722C99.5085 155.063 97.011 158.477 95.3029 161.236C94.0295 163.292 94.3481 166.403 95.2201 167.429L95.2919 167.389C95.4367 167.308 95.5333 167.254 95.5969 167.221C95.6253 167.239 95.6564 167.258 95.6904 167.278C95.6297 167.527 95.6034 168.04 95.6352 168.38C95.6982 169.057 95.8893 169.682 96.5477 171.342C96.4402 171.653 96.2705 172.063 95.9728 172.75C94.9039 175.213 94.6799 175.831 94.505 176.779C94.4175 177.254 94.3966 177.423 94.3928 177.679C94.384 178.574 94.5947 179.292 95.1168 180.168C95.4556 180.733 95.5665 180.978 95.6897 181.435C95.7953 181.82 95.9245 182.744 95.9428 183.242C95.9585 183.643 95.9021 184.143 95.8079 184.487C95.6737 184.965 95.5638 185.185 95.1935 185.708C95.055 185.903 94.8941 186.151 94.8337 186.256C94.6176 186.651 94.6245 187.03 94.8499 187.071C94.9687 187.093 95.0886 186.971 95.3543 186.557C95.4506 186.41 95.6203 186.156 95.7357 185.989C96.1111 185.439 96.3041 184.92 96.4327 184.112C96.4999 183.678 96.5076 183.567 96.4965 183.155C96.4896 182.901 96.4522 182.423 96.4105 182.094C96.2809 181.062 96.0922 180.46 95.6695 179.739C95.2917 179.095 95.2335 178.98 95.1278 178.651C94.763 177.546 94.9508 176.528 95.9399 174.247C96.3577 173.284 96.647 172.606 96.8487 172.1C97.351 173.37 97.4776 173.73 97.5094 173.957C97.5533 174.298 97.4947 174.655 97.2506 175.542C96.983 176.521 96.8615 177.073 96.7866 177.706C96.5961 179.291 96.8983 180.898 97.6827 182.48C98.0225 183.164 98.0392 183.204 98.0539 183.377C98.0702 183.573 98.029 183.696 97.8012 184.122C97.6528 184.402 97.6066 184.526 97.5785 184.723C97.5485 184.941 97.5539 184.997 97.6084 185.199C97.6686 185.412 97.6834 185.436 97.7851 185.519C97.9651 185.665 98.0965 185.574 98.1303 185.277C98.1636 184.997 98.2062 184.87 98.3803 184.541C98.6808 183.984 98.7254 183.577 98.5475 183.04C98.4962 182.886 98.4016 182.662 98.337 182.545C97.6129 181.214 97.2755 179.946 97.3099 178.687C97.331 177.901 97.4345 177.313 97.7431 176.183C98.0514 175.061 98.1268 174.633 98.095 174.178C98.0668 173.726 97.9707 173.441 97.1321 171.332C97.2534 170.958 97.2979 170.71 97.3216 170.435C97.3998 169.525 97.2587 168.707 96.841 167.681L96.6281 167.156L96.8719 167.028C96.8958 167.015 96.9253 166.997 96.9592 166.978C97.0818 167.009 97.2114 167.039 97.3485 167.068C97.6042 167.186 97.8655 167.288 98.0995 167.359C98.4217 167.453 98.4252 167.456 98.4666 167.584C98.4894 167.655 98.5639 167.836 98.6322 167.985C98.7558 168.257 98.9713 168.964 99.0755 169.412C98.9996 169.608 98.9083 169.823 98.7961 170.076C98.1159 171.598 98.0379 172.118 98.3012 173.328C98.3298 173.46 98.3558 173.597 98.3788 173.735C98.3854 173.986 98.417 174.236 98.4739 174.487C98.505 174.849 98.5114 175.183 98.4874 175.428C98.4697 175.594 98.4387 175.692 98.3024 176.029C98.213 176.25 98.1001 176.57 98.0512 176.738C97.8803 177.346 97.8126 178.157 97.8698 178.971C97.9136 179.623 98.0809 181.173 98.1162 181.231C98.1577 181.311 98.2483 181.32 98.3097 181.251C98.4048 181.152 98.4025 180.914 98.3038 179.992C98.14 178.422 98.1367 177.871 98.2988 177.117C98.3722 176.761 98.4146 176.628 98.5495 176.3C98.7376 175.848 98.7813 175.711 98.811 175.426C98.926 175.65 99.0806 175.907 99.3047 176.255C99.533 176.609 99.7506 176.963 99.7888 177.042C99.8085 177.083 99.8295 177.135 99.8509 177.195C99.8608 177.299 99.8699 177.38 99.8775 177.429C99.8981 177.553 99.9755 177.897 100.052 178.188C100.073 178.267 100.095 178.353 100.117 178.443C100.157 179.161 99.9894 179.865 99.666 180.285C99.4766 180.531 99.4564 180.709 99.599 180.825C99.6948 180.905 99.8046 180.849 99.9442 180.658C100.154 180.367 100.302 180.009 100.385 179.61C100.453 179.929 100.505 180.2 100.522 180.333C100.547 180.518 100.542 180.654 100.514 180.866C100.46 181.238 100.364 181.481 99.9352 182.322C99.3553 183.453 99.2182 183.822 99.0648 184.654C98.963 185.205 98.9219 185.692 98.9567 185.948C98.9974 186.241 99.1752 186.346 99.3373 186.175C99.4466 186.054 99.4813 185.908 99.5111 185.427C99.5371 185.022 99.6418 184.455 99.7609 184.087C99.8671 183.761 100.083 183.27 100.314 182.838C100.929 181.687 101.133 181.063 101.096 180.336C101.114 180.479 101.143 180.621 101.182 180.76C101.252 181.007 101.267 181.032 101.75 181.725C101.769 181.751 101.787 181.778 101.805 181.806L101.996 181.05C101.712 180.631 101.665 180.517 101.651 180.27C101.626 179.895 101.74 179.55 102.081 178.982C102.196 179.171 102.332 179.328 102.403 179.341C102.41 179.343 102.418 179.343 102.425 179.341L102.538 178.895C102.513 178.853 102.482 178.81 102.445 178.766C102.41 178.728 102.364 178.658 102.32 178.581C102.531 178.213 102.619 178.005 102.706 177.717C102.891 177.095 102.85 176.475 102.57 175.766C102.606 175.683 102.644 175.6 102.683 175.515C102.99 174.864 103.038 174.732 103.092 174.384C103.164 173.907 103.12 173.678 102.813 172.926C102.582 172.356 102.513 172.119 102.534 171.864C102.987 172.565 103.203 173.038 103.351 173.637C103.419 173.918 103.455 174.1 103.451 174.282C103.445 174.341 103.44 174.4 103.435 174.459C103.406 174.644 103.337 174.857 103.221 175.186C103.095 175.546 102.976 176.302 102.955 176.887C102.953 176.969 102.955 177.079 102.962 177.209L103.865 173.619V177.134C103.913 177.27 103.966 177.416 104.024 177.575L104.059 177.669C104.243 178.176 104.31 178.359 104.37 178.545C104.403 178.65 104.435 178.756 104.485 178.923L104.488 178.934C104.653 179.483 104.716 179.768 104.773 180.208C104.844 180.78 104.835 181.132 104.717 181.982C104.591 182.9 104.396 183.571 104.116 184.058C104.034 184.2 103.967 184.306 103.865 184.438V185.429ZM103.865 180.538C103.886 180.541 103.908 180.535 103.936 180.524C104.062 180.472 104.047 180.344 103.879 180.027C103.874 180.018 103.87 180.009 103.865 180V180.538ZM99.6948 168.493C99.7873 168.065 99.8184 167.702 99.787 167.387C99.9914 167.402 100.204 167.415 100.425 167.427C100.37 167.742 100.305 168.171 100.266 168.488C100.069 170.105 100.116 171.474 100.409 172.7C100.303 172.908 100.214 173.098 100.147 173.259C99.8751 173.916 99.7332 174.504 99.7228 175.033C99.7191 175.226 99.7498 175.815 99.7868 176.367C99.7166 176.255 99.6324 176.124 99.5291 175.966C99.1006 175.311 98.9608 175.038 98.8456 174.639C98.8363 174.607 98.8275 174.576 98.8194 174.544C98.8016 174.275 98.7682 173.983 98.7204 173.679C98.7208 173.656 98.7215 173.633 98.7223 173.61C98.7404 173.1 98.8151 172.837 99.2146 171.824C99.4999 171.111 99.5607 170.725 99.4938 170.025C99.4785 169.858 99.4482 169.664 99.4067 169.458C99.5383 169.104 99.6242 168.81 99.6948 168.493ZM100.817 171.95C100.635 170.64 100.717 169.114 101.055 167.453C101.153 167.456 101.252 167.459 101.353 167.462C101.612 167.861 101.748 168.139 101.831 168.417C101.855 168.499 101.876 168.585 101.893 168.673C101.722 169.323 101.689 169.885 101.79 170.381L101.781 170.397C101.735 170.481 101.601 170.693 101.487 170.865C101.256 171.213 101.025 171.588 100.817 171.95ZM102.226 167.638C102.203 167.581 102.18 167.527 102.157 167.475L102.317 167.476L102.273 167.58C102.261 167.609 102.249 167.637 102.237 167.666L102.226 167.638ZM102.604 167.828C102.664 167.684 102.709 167.567 102.739 167.476C103.031 167.475 103.334 167.471 103.647 167.465C103.426 167.911 103.323 168.284 103.305 168.66C103.287 169.021 103.317 169.301 103.414 169.672C103.352 169.768 103.284 169.865 103.208 169.965C102.768 170.546 102.554 170.841 102.431 171.084C102.344 170.946 102.294 170.857 102.257 170.775C102.301 170.695 102.332 170.628 102.355 170.559C102.393 170.443 102.412 170.32 102.442 170.119L102.442 170.119L102.444 170.105C102.547 169.439 102.541 168.84 102.424 168.289C102.478 168.138 102.539 167.984 102.604 167.828ZM104.202 167.924C104.278 167.786 104.372 167.63 104.492 167.442C104.81 167.432 105.139 167.419 105.478 167.403L105.532 167.4C105.574 167.607 105.599 167.793 105.61 167.977C105.624 168.18 105.613 168.295 105.543 168.672L105.463 169.123L104.966 170.052C104.799 170.364 104.665 170.618 104.554 170.838C104.129 170.091 103.98 169.774 103.92 169.475C104.025 169.239 104.094 169.003 104.145 168.731C104.192 168.466 104.212 168.199 104.202 167.924ZM106.652 167.353C106.672 167.353 106.693 167.352 106.713 167.351C107.198 167.333 107.658 167.318 108.095 167.307C108.104 167.561 108.074 167.724 107.972 168.01C107.854 168.334 107.691 168.605 107.373 169.013C107.041 169.434 106.788 169.797 106.607 170.109C106.467 169.929 106.366 169.765 106.279 169.582C106.151 169.306 106.106 169.146 106.092 168.892C106.091 168.869 106.09 168.846 106.09 168.823C106.125 168.646 106.149 168.473 106.162 168.298C106.195 168.177 106.239 168.048 106.296 167.91C106.37 167.729 106.439 167.528 106.451 167.468C106.468 167.36 106.47 167.36 106.652 167.353ZM108.762 168.08C108.826 167.766 108.877 167.506 108.915 167.29C109.404 167.281 109.862 167.277 110.29 167.276L110.227 167.506C110.121 167.89 110.055 168.25 110.03 168.592C109.964 168.75 109.883 168.932 109.785 169.148C109.493 169.798 109.27 170.317 109.092 170.777L108.881 170.457L108.759 170.015C108.655 169.646 108.633 169.533 108.628 169.329C108.616 168.971 108.656 168.594 108.762 168.08ZM110.883 167.362C111.164 167.415 111.415 167.389 111.635 167.284C111.779 167.287 111.92 167.289 112.056 167.292C112.147 167.589 112.198 167.853 112.205 168.068C112.094 168.295 112.031 168.463 111.966 168.678C111.899 168.904 111.852 169.136 111.826 169.375L111.742 169.533C111.43 170.12 111.246 170.536 111.109 170.979C110.615 170.411 110.4 169.909 110.361 169.246C110.655 168.584 110.745 168.316 110.815 167.936C110.855 167.721 110.877 167.539 110.883 167.362ZM112.484 167.541C112.471 167.463 112.455 167.383 112.437 167.302L112.614 167.307L112.519 167.478L112.484 167.541ZM112.997 168.095C113.16 167.801 113.339 167.466 113.397 167.336L113.444 167.339C113.629 168.385 113.685 169.363 113.605 170.247C113.545 170.917 113.387 171.512 113.14 171.997C113.094 171.938 113.047 171.88 113.001 171.823C112.872 171.662 112.719 171.463 112.665 171.384C112.411 171.004 112.302 170.082 112.431 169.417C112.502 169.064 112.654 168.705 112.997 168.095ZM115.095 167.602C115.193 167.566 115.287 167.515 115.375 167.451C116.097 167.497 116.538 167.511 116.922 167.422C117.054 167.487 117.171 167.542 117.24 167.573L117.495 167.678L117.332 168.221C117.185 168.708 117.091 169.146 117.049 169.564C116.589 171.149 116.536 171.425 116.548 171.826C116.558 172.283 116.673 172.702 117.084 173.79C117.497 174.887 117.654 175.463 117.748 176.244C117.874 177.282 117.744 178.352 117.354 179.483C117.328 178.693 117.187 177.922 116.968 177.351C116.904 177.189 116.761 176.88 116.652 176.668C116.485 176.346 116.445 176.25 116.412 176.087C116.316 175.593 116.313 174.719 116.402 173.979C116.501 173.166 116.48 172.668 116.217 172.004C116.257 171.55 116.218 171.108 116.098 170.654C116.012 170.317 115.902 170.064 115.542 169.354C115.178 168.639 115.078 168.27 115.095 167.602ZM96.7694 170.408C96.7882 170.272 96.7939 170.168 96.7902 170.067C96.7712 169.421 96.6172 168.826 96.2248 167.885L96.2196 167.873C96.1816 168.121 96.1864 168.349 96.2278 168.643C96.2896 169.074 96.3921 169.43 96.7694 170.408ZM99.4395 167.441C99.2025 167.498 98.9818 167.521 98.8187 167.497C98.7781 167.492 98.7834 167.511 98.8684 167.7C99.0097 168.014 99.1516 168.436 99.2655 168.859C99.3068 168.718 99.3416 168.579 99.3729 168.434C99.4451 168.097 99.466 167.957 99.465 167.768C99.4652 167.651 99.4563 167.541 99.4395 167.441ZM99.1701 170.048C99.1349 170.131 99.0976 170.218 99.0578 170.309C98.712 171.101 98.604 171.395 98.5402 171.74C98.4873 172.027 98.478 172.26 98.5201 172.578C98.5844 172.354 98.6863 172.079 98.8672 171.623C99.1302 170.96 99.2111 170.588 99.1701 170.048ZM100.647 173.523C100.438 174.002 100.323 174.405 100.294 174.753C100.273 174.994 100.283 175.325 100.345 176.241C100.396 176.994 100.428 177.209 100.587 177.805C100.778 178.531 101.014 179.636 101.07 180.044L101.076 180.093C101.065 179.836 101.089 179.584 101.148 179.361C101.227 179.059 101.376 178.742 101.642 178.305C101.69 178.228 101.734 178.154 101.775 178.083C101.739 177.781 101.757 177.451 101.827 177.065C101.889 176.727 101.973 176.409 102.097 176.064C101.966 175.695 101.759 175.351 101.418 174.919C101.068 174.473 100.839 174.067 100.647 173.523ZM102.386 175.354C102.213 175.005 101.972 174.627 101.777 174.402C101.431 174 101.164 173.463 100.991 172.826C101.227 172.389 101.525 171.9 101.89 171.349L101.913 171.314C101.966 171.235 102.012 171.165 102.053 171.102C102.113 171.211 102.188 171.334 102.285 171.485C102.275 171.525 102.266 171.566 102.257 171.61C102.185 171.942 102.182 171.958 102.22 172.266C102.254 172.538 102.297 172.67 102.509 173.2C102.793 173.891 102.828 174.066 102.763 174.416C102.73 174.595 102.681 174.723 102.513 175.081C102.468 175.175 102.426 175.266 102.386 175.354ZM102.099 177.45C102.116 177.215 102.163 176.961 102.238 176.688C102.256 176.932 102.216 177.165 102.099 177.45ZM103.611 173.337C103.706 172.934 103.838 172.517 104.013 172.055C104.094 171.842 104.17 171.654 104.257 171.459C104.225 171.403 104.193 171.347 104.161 171.289C103.824 170.701 103.662 170.392 103.553 170.112C103.477 170.222 103.391 170.339 103.295 170.463C102.928 170.939 102.746 171.201 102.648 171.42L102.667 171.449C103.057 172.041 103.283 172.453 103.466 172.915C103.521 173.055 103.57 173.196 103.611 173.337ZM104.893 171.441C105.657 172.824 105.964 173.559 106.3 174.751C106.595 175.793 106.68 176.307 106.755 177.518C106.767 177.707 106.776 177.89 106.783 178.068C106.805 177.903 106.829 177.723 106.854 177.546C106.926 177.041 106.994 176.479 107.007 176.296C107.066 175.354 106.931 174.654 106.539 173.839C106.429 173.613 106.311 173.31 106.273 173.171C106.186 172.837 106.127 172.324 106.134 171.923C106.142 171.495 106.254 170.884 106.383 170.559C106.397 170.526 106.411 170.493 106.426 170.459C106.195 170.169 106.055 169.918 105.924 169.584C105.914 169.559 105.905 169.533 105.896 169.508C105.815 169.708 105.701 169.922 105.501 170.275C105.273 170.68 105.07 171.069 104.893 171.441ZM106.848 170.393C106.886 170.435 106.926 170.479 106.969 170.525C107.532 171.117 107.902 171.592 108.098 171.972C108.232 172.236 108.373 172.703 108.442 173.098C108.556 172.489 108.675 171.993 108.848 171.461C108.514 170.974 108.421 170.79 108.281 170.38C108.088 169.808 108.019 169.269 108.07 168.624C107.949 168.852 107.787 169.084 107.553 169.38C107.267 169.743 107.009 170.115 106.848 170.393ZM109.246 172.046C109.126 172.449 109.036 172.836 108.959 173.256C108.798 174.127 108.752 174.821 108.787 175.825C108.838 177.241 109.05 178.381 109.425 179.25C109.516 179.468 109.714 179.862 109.865 180.127C109.949 180.275 110.02 180.407 110.079 180.528C110.147 179.982 110.271 179.373 110.458 178.669L110.502 178.502C110.557 178.294 110.616 178.073 110.645 177.959C110.744 177.586 110.873 176.987 110.905 176.748C110.988 176.108 110.789 175.06 110.408 174.157C110.144 173.526 109.751 172.815 109.246 172.046ZM111.812 170.134C111.597 170.564 111.46 170.912 111.368 171.265C112.064 172.031 112.164 172.189 112.304 172.636C112.407 172.96 112.411 172.975 112.402 173.286C112.401 173.312 112.4 173.337 112.399 173.361C112.511 173.074 112.662 172.77 112.804 172.54C112.752 172.475 112.699 172.409 112.645 172.342L112.619 172.309C112.307 171.922 112.185 171.77 112.109 171.598C112.06 171.486 112.03 171.366 111.981 171.168L111.978 171.155C111.888 170.799 111.833 170.46 111.812 170.134ZM113.527 172.504C113.958 173.088 114.344 173.677 114.558 174.081C114.666 174.287 114.76 174.487 114.84 174.681C114.919 174.45 115.037 174.212 115.286 173.74C115.652 173.048 115.766 172.763 115.843 172.356C115.863 172.252 115.878 172.152 115.888 172.054C115.788 171.818 115.637 171.528 115.369 171.043C114.94 170.269 114.735 169.817 114.566 169.294C114.367 168.665 114.321 168.168 114.426 167.753L114.471 167.58L114.279 167.511C114.226 167.492 114.143 167.454 114.052 167.41C114.236 168.621 114.246 169.701 114.087 170.705C113.964 171.473 113.807 171.987 113.527 172.504ZM114.77 167.95C114.722 168.111 114.705 168.318 114.727 168.55C114.744 168.739 114.778 168.877 114.881 169.205C115.035 169.696 115.223 170.102 115.608 170.786C115.701 170.952 115.785 171.105 115.861 171.249C115.795 170.787 115.683 170.511 115.215 169.587C114.886 168.947 114.781 168.573 114.77 167.95ZM112.097 174.596C111.979 175.03 111.982 175.199 112.061 175.477C112.11 175.652 112.171 175.774 112.372 176.116C112.82 176.868 113.065 177.411 113.239 178.027C113.326 178.341 113.375 178.62 113.384 178.88C113.554 178.556 113.581 178.439 113.573 178.223C113.563 177.835 113.408 177.493 112.987 176.929C112.565 176.361 112.43 176.135 112.285 175.779C112.133 175.399 112.07 175.013 112.097 174.596ZM111.275 171.71C111.271 171.732 111.268 171.754 111.264 171.776C111.17 172.426 111.19 172.554 111.538 173.306C111.63 173.506 111.731 173.837 111.815 174.194C111.833 174.132 111.852 174.067 111.873 173.998C112.085 173.293 112.11 173.085 112.016 172.762C111.93 172.475 111.782 172.26 111.275 171.71Z" fill="#A3ACC9"/>
<path fill-rule="evenodd" clip-rule="evenodd" d="M311.456 182.321C313.785 183.069 315.425 183.964 316.646 184.632C317.525 185.112 318.188 185.474 318.735 185.578C319.753 185.771 321.771 185.223 323.322 184.802C324.224 184.558 324.967 184.356 325.265 184.368C326.074 184.399 326.325 184.895 324.65 186.292C324.485 186.43 324.333 186.554 324.194 186.668C322.933 187.701 322.781 187.825 323.459 189.168C324.212 190.658 324.956 192.391 323.366 191.599C322.771 191.303 322.109 190.8 321.428 190.284C320.289 189.418 319.097 188.513 318.083 188.474C317.578 188.455 316.929 188.715 316.089 189.053C314.943 189.513 313.441 190.116 311.456 190.351V182.321Z" fill="#A3ACC9"/>
<path fill-rule="evenodd" clip-rule="evenodd" d="M316.62 164.428C317.455 166.336 327.067 171.921 336.905 174.263V158.786C329.838 158.666 323.082 160.039 320.046 160.935C317.609 161.558 315.658 162.229 316.62 164.428ZM323.574 163.727C324.243 163.727 324.786 163.184 324.786 162.515C324.786 161.846 324.243 161.303 323.574 161.303C322.905 161.303 322.362 161.846 322.362 162.515C322.362 163.184 322.905 163.727 323.574 163.727Z" fill="#A3ACC9"/>
<path fill-rule="evenodd" clip-rule="evenodd" d="M436.636 232.804H429.009V217.392C430.083 218.811 431.458 220.071 436.68 218.255C444.387 215.575 442.377 210.884 440.366 208.873C439.965 208.472 439.403 207.977 438.795 207.441C436.361 205.297 433.195 202.507 436.68 202.507C438.998 202.507 440.841 203.456 442.664 204.394C444.268 205.219 445.856 206.036 447.738 206.193C449.389 206.33 452.171 206.751 454.458 207.407V212.202H455.185C449.935 214.972 446.826 217.661 443.717 222.946C440.366 228.642 435.675 229.312 433.665 229.312C432.469 229.312 434.534 231.165 436.636 232.804Z" fill="#A3ACC9"/>
<path fill-rule="evenodd" clip-rule="evenodd" d="M429.009 170.079C432.315 169.86 434.65 168.702 436.342 167.863C437.358 167.359 438.142 166.97 438.764 166.97C440.01 166.97 441.516 168.141 442.956 169.26C443.816 169.928 444.653 170.579 445.397 170.951C447.387 171.946 446.392 169.624 445.397 167.634C444.501 165.841 444.681 165.663 446.182 164.19C446.346 164.028 446.527 163.851 446.724 163.654C448.714 161.664 448.382 161 447.387 161C447.021 161 446.118 161.314 445.023 161.694C443.138 162.349 440.685 163.2 439.427 162.99C438.75 162.877 437.919 162.419 436.818 161.811C435.062 160.842 432.617 159.493 429.009 158.558V170.079Z" fill="#A3ACC9"/>
<path fill-rule="evenodd" clip-rule="evenodd" d="M300.057 185.959C300.857 184.444 301.495 182.835 301.972 181.132C299.254 181.259 296.889 181.688 295.641 182.011C294.279 182.312 293.185 182.647 293.678 183.884C293.948 184.562 296.137 186.12 299.077 187.549C299.446 187.028 299.773 186.499 300.057 185.959ZM296.993 183.537C297.363 183.537 297.663 183.238 297.663 182.868C297.663 182.498 297.363 182.199 296.993 182.199C296.624 182.199 296.324 182.498 296.324 182.868C296.324 183.238 296.624 183.537 296.993 183.537Z" fill="#A3ACC9"/>
<path fill-rule="evenodd" clip-rule="evenodd" d="M262.609 197.245C261.753 197.848 260.677 198.911 260.555 200.083H257.626C257.476 199.905 257.275 199.744 257.015 199.606C254.777 198.426 254.03 197.245 254.777 196.065C255.522 194.885 257.015 195.278 257.76 196.065C258.506 196.852 259.998 194.885 260.371 194.098C260.744 193.311 262.609 192.131 263.728 193.311C264.847 194.491 263.728 196.459 262.609 197.245ZM253.285 201.82C253.118 201.654 252.884 201.525 252.585 201.447C252.06 201.309 251.834 201.588 251.51 201.988L251.51 201.989C251.407 202.117 251.293 202.256 251.157 202.399L251.156 202.4C250.594 202.99 249.989 203.623 249.124 203.623C247.394 203.623 247.74 202.535 249.124 201.447C249.254 201.344 249.384 201.245 249.512 201.149L249.751 200.97C250.891 200.12 251.84 199.411 251.547 198.181C251.201 196.73 249.47 197.093 248.778 197.818C248.086 198.544 247.74 197.818 247.394 196.367C247.048 194.916 246.009 193.827 244.971 194.19C243.933 194.553 243.587 197.093 243.933 198.907C244.164 200.116 243.78 200.036 242.882 199.847L242.882 199.847C242.433 199.753 241.857 199.632 241.165 199.632C239.088 199.632 238.742 200.358 238.742 200.721C238.742 201.234 239.608 201.401 240.819 201.084C242.203 200.721 244.279 202.172 245.318 203.623C246.355 205.075 243.241 204.712 241.857 204.349C240.472 203.986 240.126 205.8 242.203 205.8C244.279 205.8 246.355 206.526 247.048 207.977C247.74 209.429 243.933 208.703 243.241 208.34C242.549 207.977 240.472 207.977 241.165 209.066C241.55 209.672 243.29 210.074 245.222 210.52L245.226 210.52L245.227 210.521C245.715 210.633 246.216 210.749 246.71 210.871C247.18 210.988 247.644 211.11 248.086 211.243C249.829 211.765 251.69 214.352 253.285 216.843V213.799L253.277 213.783C252.71 212.594 252.839 211.406 253.285 210.616V208.524C253.055 208.58 252.82 208.641 252.585 208.703L252.585 208.703C252.494 208.727 252.397 208.757 252.298 208.788L252.298 208.788L252.298 208.788L252.295 208.789C251.636 208.994 250.854 209.237 250.854 207.977C250.854 207.867 250.852 207.758 250.849 207.651C250.847 207.552 250.843 207.454 250.84 207.358C250.798 206.205 250.764 205.277 252.239 204.349C252.717 204.048 253.064 203.719 253.285 203.393V201.82ZM253.285 222.516C253.045 222.482 252.808 222.362 252.585 222.128C251.902 221.411 251.978 220.695 252.063 219.891L252.063 219.89C252.15 219.066 252.247 218.15 251.547 217.048C250.645 215.63 250.331 216.059 249.839 216.731L249.838 216.731C249.575 217.092 249.261 217.521 248.778 217.774C247.394 218.499 247.048 218.137 247.394 216.685C247.74 215.234 246.356 211.968 245.318 214.871C244.28 217.774 245.664 219.951 248.778 221.039C251.893 222.128 250.508 225.393 248.778 225.393C247.048 225.393 246.702 225.756 246.356 226.481C245.918 227.399 246.702 229.384 249.47 229.021C252.239 228.658 252.931 230.835 250.508 231.561C249.688 231.807 249.417 232.278 249.44 232.804H253.285V222.516ZM271.748 225.481C273.403 225.151 272.924 223.355 271.174 223.03C271.036 223.005 270.907 222.975 270.786 222.942L271.748 225.481ZM269.784 220.298C270.325 219.904 271.333 219.723 273.102 220.171C277.345 221.243 277.731 218.383 276.188 216.953C274.645 215.523 274.645 214.093 275.416 214.093C275.668 214.093 275.96 214.321 276.306 214.591L276.306 214.591C277.023 215.149 277.973 215.889 279.273 215.166C281.202 214.093 280.045 211.591 279.273 210.161C278.502 208.731 280.045 208.374 280.816 209.446C281.587 210.519 283.516 211.949 284.287 210.876C285.059 209.804 285.059 208.731 283.516 208.374C281.973 208.016 280.816 207.659 281.587 207.301C282.359 206.944 284.673 205.871 282.744 204.441C280.816 203.011 279.659 204.084 279.273 204.441C279.182 204.526 279.069 204.732 278.934 204.977L278.934 204.977L278.934 204.977L278.933 204.978C278.499 205.766 277.841 206.961 276.959 205.871C275.802 204.441 275.031 204.084 274.259 204.084C273.488 204.084 273.102 205.514 274.259 206.944C275.416 208.374 275.416 209.446 274.645 209.089C274.442 208.994 274.211 208.701 273.933 208.347L273.933 208.347C273.156 207.357 272.004 205.891 270.017 206.944C267.317 208.374 269.245 210.876 270.402 211.591C271.56 212.306 271.174 213.378 270.402 213.378C270.173 213.378 269.944 213.126 269.665 212.818L269.665 212.818C269.062 212.155 268.225 211.233 266.647 212.022L269.784 220.298Z" fill="#A3ACC9"/>
<path fill-rule="evenodd" clip-rule="evenodd" d="M346.6 175.271C351.427 174.998 354.847 173.49 357.326 172.397C358.822 171.738 359.975 171.23 360.887 171.234C362.716 171.244 364.919 172.803 367.026 174.294C368.284 175.185 369.507 176.051 370.597 176.549C373.511 177.88 372.066 174.801 370.619 172.161C369.315 169.782 369.581 169.549 371.794 167.611C372.037 167.398 372.303 167.165 372.593 166.906C375.527 164.288 375.045 163.408 373.585 163.4C373.048 163.398 371.719 163.806 370.109 164.301C367.339 165.152 363.733 166.261 361.888 165.974C360.895 165.819 359.679 165.207 358.066 164.394C355.491 163.098 351.905 161.291 346.6 160.026V175.271Z" fill="#A3ACC9"/>
<path fill-rule="evenodd" clip-rule="evenodd" d="M419.314 213.047C412.591 211.272 402.918 209.117 394.798 207.868C388.641 206.921 385.281 207.554 383.582 208.577L393.177 225.318C400.625 228.204 410.656 231.171 417.323 232.804H419.314V213.047Z" fill="#A3ACC9"/>
<path fill-rule="evenodd" clip-rule="evenodd" d="M410.902 159.342C412.522 158.802 415.697 158.032 419.313 157.755V168.377C413.813 166.375 409.066 163.209 408.581 161.996C407.917 160.337 409.244 159.823 410.902 159.342ZM412.818 161.797C413.187 161.797 413.487 161.498 413.487 161.128C413.487 160.759 413.187 160.459 412.818 160.459C412.448 160.459 412.148 160.759 412.148 161.128C412.148 161.498 412.448 161.797 412.818 161.797Z" fill="#A3ACC9"/>
<path d="M493.239 0.12207V31.6312H430.22V52.2333L481.12 52.1565V82.5305H430.22V105.556H493.239V138.277H389.016V0.12207H493.239Z" fill="#064C7F"/>
<path d="M314.704 47.9577C330.817 51.3334 342.219 54.2974 348.995 56.932C355.77 59.5667 361.389 64.0127 366.016 70.3524C370.56 76.692 372.791 84.1844 372.791 92.747C372.791 106.25 367.338 117.282 356.266 125.68C345.194 134.078 330.734 138.277 312.804 138.277C280.001 138.277 259.757 124.692 252.073 97.44L290.412 90.6063C293.634 101.392 301.98 106.826 315.283 106.826C325.611 106.826 330.817 104.109 330.817 98.5927C330.817 95.711 329.577 93.4057 327.181 91.8413C324.785 90.1947 320.488 88.795 314.291 87.56C290.66 83.0317 275.539 77.1037 268.846 69.8583C262.154 62.613 258.766 54.0504 258.766 44.2527C258.766 31.5734 263.641 21.117 273.226 12.7191C282.893 4.32106 296.692 0.12207 314.787 0.12207C342.137 0.12207 360.232 11.1547 369.073 33.0554L334.865 43.347C331.312 34.3727 324.124 29.9267 313.3 29.9267C304.293 29.9267 299.831 32.6437 299.831 38.2424C299.831 40.7124 300.823 42.606 302.889 44.0057C304.872 45.4054 308.838 46.7227 314.704 47.9577Z" fill="#064C7F"/>
<path d="M238.742 138.277H196.326V0.12207H238.742V138.277Z" fill="#064C7F"/>
<path d="M111.411 0.12207L131.909 79.7933L151.289 0.12207H183.76L147.086 138.277H111.441L92.1218 62.0819L73.8607 138.277H36.3566L0 0.12207H39.9084L59.2579 79.6422L78.0934 0.12207H111.411Z" fill="#064C7F"/>
<path fill-rule="evenodd" clip-rule="evenodd" d="M389.016 84.9963V82.8155L390.607 81.6787V74.5085C390.719 73.9508 390.942 72.8354 391.946 72.8354C392.749 72.8354 392.949 73.9508 392.949 74.5085V81.7919L419.815 105.526L430.22 98.2424V100.968L421.675 107.169L444.928 127.711H447.156C448.494 127.711 450.168 128.046 448.494 130.388C447.307 132.05 446.208 135.94 445.663 138.277H389.016V109.642H390.607V83.9731L389.016 84.9963ZM431.095 105.556H432.433V105.741C433.213 106.017 433.772 106.761 433.772 107.635C433.772 108.509 433.213 109.253 432.433 109.528V110.004C433.012 110.095 433.772 110.432 433.772 111.315C433.772 111.384 433.773 111.455 433.775 111.526L433.78 111.655C433.813 112.596 433.85 113.658 431.764 113.658C431.318 113.658 430.426 113.524 430.426 112.988C430.426 112.319 431.095 112.319 431.764 112.319C432.433 112.319 433.102 111.65 432.099 110.981L432.097 110.98C431.539 110.607 431.291 110.443 431.182 110.312H431.095V109.977V109.528C430.315 109.253 429.756 108.509 429.756 107.635C429.756 106.761 430.315 106.017 431.095 105.741V105.556ZM393.773 109.912C393.842 110.028 393.903 110.161 393.953 110.312C394.489 111.918 393.73 113.212 393.284 113.658V124.098L398.972 120.116V102.114L393.773 109.912ZM392.949 108.536L398.972 99.0379V95.9235C399.084 95.3658 399.307 94.2504 400.311 94.2504C401.114 94.2504 401.315 95.3658 401.315 95.9235V97.5661L416.962 107.523L418.147 106.693L392.949 83.8159V108.536ZM415.242 108.727L401.315 100.022V118.476L415.242 108.727ZM396.446 125.481L398.972 123.647V125.672L396.446 125.481ZM425.992 127.711H441.298L420.006 108.381L401.315 121.947V125.849L425.992 127.711Z" fill="#A3ACC9"/>
<path fill-rule="evenodd" clip-rule="evenodd" d="M372.79 92.638L335.902 113.757L353.461 116.823V108.124C353.015 107.789 352.122 106.852 352.122 105.781C352.122 104.711 353.684 104.22 354.465 104.108H371.346C371.101 105.015 370.825 105.907 370.517 106.785H368.184V110.131H369.16C366.423 116.038 362.133 121.229 356.265 125.68C351.858 129.023 346.914 131.7 341.428 133.713C335.998 129.669 331.098 119.104 330.178 117.121L330.178 117.121L330.178 117.121L330.178 117.121C330.107 116.969 330.06 116.868 330.038 116.823C329.944 116.635 329.717 116.42 329.462 116.178C328.811 115.562 327.979 114.773 328.7 113.812C329.503 112.741 331.488 112.92 332.381 113.143L333.014 113.253L372.731 90.3511C372.769 91.1046 372.789 91.867 372.79 92.638ZM356.807 106.785H360.153V110.131H356.807V106.785ZM366.176 106.785H362.83V110.131H366.176V106.785Z" fill="#A3ACC9"/>
<path fill-rule="evenodd" clip-rule="evenodd" d="M238.742 51.2719H235.617C234.947 51.1604 233.542 51.1381 233.274 51.9411C232.94 52.945 232.27 53.2796 230.263 53.2796H226.582V54.2834L228.216 138.277H219.935L221.898 51.9411C221.451 51.6065 220.425 51.1381 219.89 51.9411C219.552 52.4484 219.641 53.3828 219.725 54.2696C219.808 55.1377 219.886 55.96 219.555 56.291C219.032 56.8144 204.181 80.8337 196.326 93.5802V85.7077L211.525 55.9564C212.194 54.5065 214.135 51.5396 216.544 51.2719C218.953 51.0042 218.663 49.1527 218.217 48.2604C217.994 47.2566 217.681 44.9143 218.217 43.5759C218.545 42.7545 218.471 42.7397 218.072 42.6602C217.659 42.5778 216.897 42.426 215.875 41.2336C214.389 39.4999 203.049 20.2544 196.326 8.72881V4.02173L217.882 33.5376C218.886 34.8761 220.76 38.1552 220.225 40.5644C219.555 43.5759 222.901 44.9143 223.905 45.249C224.556 45.4659 232.578 45.6975 238.742 45.8369V51.2719Z" fill="#A3ACC9"/>
<path fill-rule="evenodd" clip-rule="evenodd" d="M78.0511 120.792L73.8605 138.277H73.6354V124.807H70.9585V122.13H72.297V120.792H78.0511ZM84.398 94.3091L82.5302 102.102L74.3046 89.3384H72.297V109.749H73.6354V110.753H70.2893V109.749H71.6277V88.3345H71.9624H72.297H74.6392L75.3084 87.6653H76.6469L84.398 94.3091ZM155.547 106.403H153.941V105.065H155.28V86.9961H152.918L140.794 107.073V112.426L143.151 113.765V117.111H145.846C146.856 117.222 148.877 118.315 148.877 121.795V127.149H146.856V138.277H137.426V127.149H127.996V138.277H123.281V127.149H117.219V138.277H111.441L104.759 111.923L114.862 54.2044L119.142 51.9144V46.1738H119.811V52.1934L123.281 54.2044L129.343 111.088H130.017V106.069H131.364L133.722 99.042L152.918 84.9884L155.949 85.6577V86.3269V86.9961V104.889L155.547 106.403Z" fill="#A3ACC9"/>
<path fill-rule="evenodd" clip-rule="evenodd" d="M259.121 49.6242C258.956 48.4099 258.849 47.1746 258.798 45.9182H269.125H271.467C271.133 46.699 269.727 48.3943 266.783 48.9297C265.211 49.2154 262.173 49.4503 259.121 49.6242Z" fill="#A3ACC9"/>
<path d="M539.196 0L549.265 28.4646L559.28 0H569.888V39.2466H561.784V28.5185L562.592 10.0003L552.011 39.2466H546.465L535.911 10.0273L536.719 28.5185V39.2466H528.642V0H539.196Z" fill="#064C7F"/>
<path d="M599.557 31.1601H585.396L582.703 39.2466H574.115L588.707 0H596.192L610.864 39.2466H602.276L599.557 31.1601ZM587.576 24.61H597.376L592.449 9.91948L587.576 24.61Z" fill="#064C7F"/>
<path d="M629.037 24.8796H622.603V39.2466H614.526V0H629.091C633.722 0 637.294 1.03328 639.806 3.09984C642.319 5.1664 643.576 8.08653 643.576 11.8602C643.576 14.5378 642.992 16.7751 641.826 18.5721C640.677 20.3511 638.927 21.7707 636.576 22.831L645.056 38.8693V39.2466H636.387L629.037 24.8796ZM622.603 18.3295H629.118C631.146 18.3295 632.717 17.8173 633.83 16.793C634.942 15.7508 635.499 14.3222 635.499 12.5072C635.499 10.6563 634.969 9.20068 633.91 8.14044C632.869 7.08021 631.263 6.55009 629.091 6.55009H622.603V18.3295Z" fill="#064C7F"/>
<path d="M658.329 39.2466H650.253V0H658.329V39.2466Z" fill="#064C7F"/>
<path d="M697.717 39.2466H689.641L673.918 13.4236V39.2466H665.841V0H673.918L689.668 25.8769V0H697.717V39.2466Z" fill="#064C7F"/>
<path d="M728.356 22.238H712.848V32.7505H731.048V39.2466H704.771V0H730.994V6.55009H712.848V15.9035H728.356V22.238Z" fill="#064C7F"/>
<path d="M537.231 103.651H529.154V64.4048H537.231V103.651Z" fill="#064C7F"/>
<path d="M576.619 103.651H568.542L552.819 77.8284V103.651H544.742V64.4048H552.819L568.569 90.2817V64.4048H576.619V103.651Z" fill="#064C7F"/>
<path d="M607.257 87.6131H591.749V103.651H583.672V64.4048H609.195V70.9548H591.749V81.09H607.257V87.6131Z" fill="#064C7F"/>
<path d="M646.08 84.9176C646.08 88.7812 645.397 92.1685 644.033 95.0797C642.669 97.9908 640.713 100.237 638.164 101.818C635.633 103.4 632.726 104.19 629.441 104.19C626.193 104.19 623.294 103.409 620.745 101.845C618.196 100.282 616.222 98.0537 614.822 95.1605C613.422 92.2494 612.713 88.9069 612.695 85.1332V83.1925C612.695 79.3289 613.386 75.9326 614.768 73.0034C616.168 70.0563 618.134 67.8011 620.664 66.2377C623.213 64.6563 626.121 63.8656 629.387 63.8656C632.654 63.8656 635.553 64.6563 638.083 66.2377C640.632 67.8011 642.597 70.0563 643.98 73.0034C645.38 75.9326 646.08 79.3199 646.08 83.1655V84.9176ZM637.895 83.1386C637.895 79.0234 637.159 75.8966 635.687 73.7582C634.216 71.6197 632.116 70.5505 629.387 70.5505C626.677 70.5505 624.586 71.6108 623.114 73.7312C621.643 75.8337 620.898 78.9246 620.88 83.0038V84.9176C620.88 88.9249 621.616 92.0337 623.087 94.2441C624.559 96.4544 626.677 97.5595 629.441 97.5595C632.151 97.5595 634.233 96.4993 635.687 94.3788C637.141 92.2404 637.877 89.1316 637.895 85.0524V83.1386Z" fill="#064C7F"/>
<path d="M666.46 89.2843H660.026V103.651H651.949V64.4048H666.514C671.145 64.4048 674.716 65.438 677.229 67.5046C679.742 69.5711 680.998 72.4913 680.998 76.265C680.998 78.9425 680.415 81.1798 679.248 82.9768C678.1 84.7559 676.35 86.1755 673.998 87.2357L682.479 103.274V103.651H673.81L666.46 89.2843ZM660.026 82.7342H666.541C668.569 82.7342 670.14 82.2221 671.252 81.1978C672.365 80.1555 672.922 78.7269 672.922 76.9119C672.922 75.061 672.392 73.6054 671.333 72.5452C670.292 71.485 668.686 70.9548 666.514 70.9548H660.026V82.7342Z" fill="#064C7F"/>
<path d="M697.717 64.4048L707.787 92.8694L717.802 64.4048H728.409V103.651H720.306V92.9233L721.113 74.4051L710.533 103.651H704.987L694.433 74.4321L695.241 92.9233V103.651H687.164V64.4048H697.717Z" fill="#064C7F"/>
<path d="M758.078 95.5649H743.917L741.225 103.651H732.636L747.228 64.4048H754.713L769.386 103.651H760.798L758.078 95.5649ZM746.098 89.0148H755.898L750.971 74.3242L746.098 89.0148Z" fill="#064C7F"/>
<path d="M799.324 70.9548H787.316V103.651H779.24V70.9548H767.394V64.4048H799.324V70.9548Z" fill="#064C7F"/>
<path d="M812.543 103.651H804.466V64.4048H812.543V103.651Z" fill="#064C7F"/>
<path d="M852.254 84.9176C852.254 88.7812 851.572 92.1685 850.208 95.0797C848.844 97.9908 846.888 100.237 844.339 101.818C841.808 103.4 838.901 104.19 835.616 104.19C832.367 104.19 829.469 103.409 826.92 101.845C824.371 100.282 822.397 98.0537 820.997 95.1605C819.597 92.2494 818.888 88.9069 818.87 85.1332V83.1925C818.87 79.3289 819.561 75.9326 820.943 73.0034C822.343 70.0563 824.308 67.8011 826.839 66.2377C829.388 64.6563 832.295 63.8656 835.562 63.8656C838.829 63.8656 841.727 64.6563 844.258 66.2377C846.807 67.8011 848.772 70.0563 850.154 73.0034C851.554 75.9326 852.254 79.3199 852.254 83.1655V84.9176ZM844.07 83.1386C844.07 79.0234 843.334 75.8966 841.862 73.7582C840.39 71.6197 838.29 70.5505 835.562 70.5505C832.852 70.5505 830.761 71.6108 829.289 73.7312C827.817 75.8337 827.072 78.9246 827.055 83.0038V84.9176C827.055 88.9249 827.79 92.0337 829.262 94.2441C830.734 96.4544 832.852 97.5595 835.616 97.5595C838.326 97.5595 840.408 96.4993 841.862 94.3788C843.316 92.2404 844.052 89.1316 844.07 85.0524V83.1386Z" fill="#064C7F"/>
<path d="M890 103.651H881.923L866.2 77.8284V103.651H858.123V64.4048H866.2L881.95 90.2817V64.4048H890V103.651Z" fill="#064C7F"/>
<path d="M548.969 157.759C548.969 156.232 548.431 155.064 547.354 154.255C546.277 153.429 544.338 152.566 541.538 151.667C538.738 150.751 536.522 149.852 534.888 148.972C530.437 146.564 528.212 143.32 528.212 139.241C528.212 137.121 528.804 135.234 529.988 133.581C531.191 131.909 532.905 130.607 535.131 129.672C537.374 128.738 539.887 128.27 542.669 128.27C545.469 128.27 547.964 128.783 550.154 129.807C552.343 130.813 554.039 132.242 555.242 134.093C556.463 135.944 557.073 138.046 557.073 140.4H548.996C548.996 138.603 548.431 137.211 547.3 136.222C546.169 135.216 544.581 134.713 542.534 134.713C540.56 134.713 539.026 135.135 537.931 135.98C536.836 136.806 536.288 137.902 536.288 139.268C536.288 140.544 536.926 141.613 538.2 142.476C539.492 143.338 541.386 144.147 543.881 144.902C548.475 146.285 551.823 148.002 553.923 150.05C556.023 152.099 557.073 154.65 557.073 157.705C557.073 161.102 555.789 163.77 553.223 165.711C550.656 167.634 547.201 168.595 542.858 168.595C539.842 168.595 537.096 168.047 534.619 166.951C532.142 165.837 530.249 164.318 528.938 162.396C527.646 160.473 527 158.244 527 155.711H535.104C535.104 160.041 537.688 162.207 542.858 162.207C544.778 162.207 546.277 161.821 547.354 161.048C548.431 160.257 548.969 159.161 548.969 157.759Z" fill="#064C7F"/>
<path d="M576.08 146.492L584.238 128.81H593.069L580.199 153.824V168.056H571.988V153.824L559.119 128.81H567.976L576.08 146.492Z" fill="#064C7F"/>
<path d="M616.545 157.759C616.545 156.232 616.007 155.064 614.93 154.255C613.853 153.429 611.914 152.566 609.115 151.667C606.315 150.751 604.098 149.852 602.465 148.972C598.013 146.564 595.788 143.32 595.788 139.241C595.788 137.121 596.38 135.234 597.565 133.581C598.767 131.909 600.481 130.607 602.707 129.672C604.95 128.738 607.463 128.27 610.245 128.27C613.045 128.27 615.54 128.783 617.73 129.807C619.92 130.813 621.616 132.242 622.818 134.093C624.039 135.944 624.649 138.046 624.649 140.4H616.572C616.572 138.603 616.007 137.211 614.876 136.222C613.745 135.216 612.157 134.713 610.111 134.713C608.136 134.713 606.602 135.135 605.507 135.98C604.412 136.806 603.865 137.902 603.865 139.268C603.865 140.544 604.502 141.613 605.776 142.476C607.068 143.338 608.962 144.147 611.457 144.902C616.052 146.285 619.399 148.002 621.499 150.05C623.599 152.099 624.649 154.65 624.649 157.705C624.649 161.102 623.366 163.77 620.799 165.711C618.232 167.634 614.777 168.595 610.434 168.595C607.418 168.595 604.672 168.047 602.195 166.951C599.718 165.837 597.825 164.318 596.515 162.396C595.222 160.473 594.576 158.244 594.576 155.711H602.68C602.68 160.041 605.265 162.207 610.434 162.207C612.354 162.207 613.853 161.821 614.93 161.048C616.007 160.257 616.545 159.161 616.545 157.759Z" fill="#064C7F"/>
<path d="M659.649 135.36H647.641V168.056H639.564V135.36H627.718V128.81H659.649V135.36Z" fill="#064C7F"/>
<path d="M687.864 151.047H672.356V161.56H690.556V168.056H664.279V128.81H690.502V135.36H672.356V144.713H687.864V151.047Z" fill="#064C7F"/>
<path d="M705.848 128.81L715.917 157.274L725.933 128.81H736.54V168.056H728.436V157.328L729.244 138.81L718.663 168.056H713.117L702.564 138.837L703.371 157.328V168.056H695.294V128.81H705.848Z" fill="#064C7F"/>
<path d="M780.909 152.018H765.401V168.056H757.324V128.81H782.847V135.36H765.401V145.495H780.909V152.018Z" fill="#064C7F"/>
<path d="M819.732 149.322C819.732 153.186 819.049 156.573 817.685 159.484C816.321 162.396 814.365 164.642 811.816 166.223C809.285 167.805 806.378 168.595 803.093 168.595C799.845 168.595 796.946 167.814 794.397 166.25C791.848 164.687 789.874 162.458 788.474 159.565C787.074 156.654 786.365 153.312 786.347 149.538V147.597C786.347 143.734 787.038 140.337 788.42 137.408C789.82 134.461 791.786 132.206 794.316 130.642C796.865 129.061 799.773 128.27 803.039 128.27C806.306 128.27 809.205 129.061 811.735 130.642C814.284 132.206 816.25 134.461 817.632 137.408C819.032 140.337 819.732 143.725 819.732 147.57V149.322ZM811.547 147.543C811.547 143.428 810.811 140.301 809.339 138.163C807.868 136.024 805.768 134.955 803.039 134.955C800.329 134.955 798.238 136.016 796.766 138.136C795.295 140.238 794.55 143.329 794.532 147.409V149.322C794.532 153.33 795.268 156.438 796.739 158.649C798.211 160.859 800.329 161.964 803.093 161.964C805.803 161.964 807.885 160.904 809.339 158.784C810.793 156.645 811.529 153.536 811.547 149.457V147.543Z" fill="#064C7F"/>
<path d="M840.112 153.689H833.678V168.056H825.601V128.81H840.166C844.797 128.81 848.368 129.843 850.881 131.909C853.394 133.976 854.65 136.896 854.65 140.67C854.65 143.347 854.067 145.585 852.9 147.382C851.752 149.161 850.002 150.58 847.65 151.64L856.131 167.679V168.056H847.462L840.112 153.689ZM833.678 147.139H840.193C842.221 147.139 843.792 146.627 844.904 145.603C846.017 144.56 846.574 143.132 846.574 141.317C846.574 139.466 846.044 138.01 844.985 136.95C843.944 135.89 842.338 135.36 840.166 135.36H833.678V147.139Z" fill="#064C7F"/>
<path d="M552.227 215.452H536.719V225.965H554.919V232.461H528.642V193.214H554.865V199.764H536.719V209.118H552.227V215.452Z" fill="#064C7F"/>
<path d="M589.326 193.214V219.064C589.326 223.359 587.98 226.755 585.288 229.253C582.614 231.751 578.952 233 574.303 233C569.726 233 566.092 231.787 563.4 229.361C560.707 226.935 559.334 223.602 559.28 219.361V193.214H567.357V219.118C567.357 221.688 567.968 223.566 569.188 224.752C570.426 225.92 572.132 226.504 574.303 226.504C578.844 226.504 581.151 224.114 581.223 219.334V193.214H589.326Z" fill="#064C7F"/>
<path d="M610.461 218.094H604.026V232.461H595.949V193.214H610.514C615.145 193.214 618.717 194.248 621.23 196.314C623.743 198.381 624.999 201.301 624.999 205.075C624.999 207.752 624.416 209.989 623.249 211.786C622.1 213.565 620.35 214.985 617.999 216.045L626.48 232.084V232.461H617.811L610.461 218.094ZM604.026 211.544H610.541C612.57 211.544 614.14 211.032 615.253 210.007C616.366 208.965 616.922 207.536 616.922 205.721C616.922 203.871 616.393 202.415 615.334 201.355C614.293 200.294 612.686 199.764 610.514 199.764H604.026V211.544Z" fill="#064C7F"/>
<path d="M663.364 213.727C663.364 217.591 662.682 220.978 661.318 223.889C659.954 226.8 657.997 229.047 655.449 230.628C652.918 232.209 650.01 233 646.726 233C643.477 233 640.578 232.218 638.03 230.655C635.481 229.092 633.507 226.863 632.107 223.97C630.707 221.059 629.998 217.716 629.98 213.943V212.002C629.98 208.138 630.671 204.742 632.053 201.813C633.453 198.866 635.418 196.611 637.949 195.047C640.498 193.466 643.405 192.675 646.672 192.675C649.938 192.675 652.837 193.466 655.368 195.047C657.917 196.611 659.882 198.866 661.264 201.813C662.664 204.742 663.364 208.129 663.364 211.975V213.727ZM655.179 211.948C655.179 207.833 654.444 204.706 652.972 202.568C651.5 200.429 649.4 199.36 646.672 199.36C643.962 199.36 641.871 200.42 640.399 202.541C638.927 204.643 638.182 207.734 638.164 211.813V213.727C638.164 217.734 638.9 220.843 640.372 223.054C641.844 225.264 643.962 226.369 646.726 226.369C649.436 226.369 651.518 225.309 652.972 223.188C654.426 221.05 655.161 217.941 655.179 213.862V211.948Z" fill="#064C7F"/>
<path d="M677.31 218.633V232.461H669.233V193.214H684.525C687.469 193.214 690.053 193.753 692.279 194.832C694.523 195.91 696.246 197.446 697.448 199.441C698.651 201.418 699.252 203.673 699.252 206.207C699.252 210.052 697.933 213.089 695.294 215.317C692.674 217.528 689.039 218.633 684.391 218.633H677.31ZM677.31 212.083H684.525C686.661 212.083 688.285 211.58 689.398 210.573C690.529 209.567 691.094 208.129 691.094 206.261C691.094 204.338 690.529 202.783 689.398 201.597C688.268 200.411 686.706 199.8 684.714 199.764H677.31V212.083Z" fill="#064C7F"/>
<path d="M728.409 215.452H712.902V225.965H731.102V232.461H704.825V193.214H731.048V199.764H712.902V209.118H728.409V215.452Z" fill="#064C7F"/>
</svg>
