<svg width="1040" height="363" viewBox="0 0 1040 363" fill="none" xmlns="http://www.w3.org/2000/svg">
<path d="M254.55 184.3C254.55 161.86 246.3 140.76 231.33 124.9C228.39 121.78 225.25 118.95 221.95 116.39L209.53 138.46C222.52 149.44 231.79 165.34 231.79 184.3C231.79 217.38 206.49 244.2 175.29 244.2C167.99 244.2 161.02 242.71 154.61 240.03L143.13 261.11C153.13 265.82 164.02 268.31 175.29 268.31C218.99 268.32 254.55 230.63 254.55 184.3Z" fill="#0065A4"/>
<path d="M232.07 31.2401C231.98 23.5501 231.29 16.2201 230.03 9.46005L229.6 7.17004L227.96 8.73004C223.05 13.42 218.28 18.92 213.78 25.06C190.36 57.02 178.44 99.7901 185.43 126.75L185.63 127.54L186.39 127.7C187.89 128.01 189.25 128.38 190.56 128.82C192.1 129.34 193.63 129.96 195.09 130.68L195.78 131.02L196.37 130.53C217.57 113.03 232.57 71.2801 232.07 31.2401Z" fill="#00928F"/>
<path d="M153.72 1.85001L152.38 0L151.56 2.17C149.11 8.68 147.13 15.84 145.65 23.45C137.98 63.09 145.12 107.04 162.63 127.95L163.14 128.57L163.89 128.36C165.36 127.94 166.74 127.63 168.1 127.41C169.69 127.15 171.33 127 172.93 126.95L173.7 126.93L174.03 126.21C185.73 100.61 181.78 56.13 164.63 20.45C161.34 13.58 157.68 7.33001 153.72 1.85001Z" fill="#00928F"/>
<path d="M97.1601 42.56C91.3501 37.95 85.4501 34.08 79.6201 31.01L77.6401 29.97L77.8201 32.3C78.3401 39.28 79.5401 46.64 81.4001 54.16C91.0501 93.31 115.79 129.38 140.21 139.92L140.93 140.23L141.51 139.69C142.66 138.62 143.76 137.69 144.89 136.87C146.21 135.89 147.61 134.99 149.05 134.19L149.72 133.82L149.71 133.01C149.52 104.56 127.43 66.52 97.1601 42.56Z" fill="#00928F"/>
<path d="M36.5598 111.83C61.5498 142.42 98.7698 163.18 125.08 161.19L125.85 161.13L126.14 160.37C126.73 158.87 127.33 157.52 127.99 156.25C128.76 154.75 129.64 153.29 130.59 151.9L131.03 151.25L130.69 150.53C118.66 125.1 82.9698 101.35 45.8398 94.03C38.7098 92.63 31.7898 91.91 25.2898 91.9L23.0898 91.89L24.2198 93.9C27.6198 99.92 31.7598 105.95 36.5598 111.83Z" fill="#00928F"/>
<path d="M120.37 187.33L121.04 186.92L120.99 186.1C120.89 184.48 120.88 182.99 120.93 181.54C121 179.83 121.18 178.11 121.45 176.42L121.58 175.63L120.98 175.14C99.58 157.97 57.66 153.38 21.3 164.23C14.33 166.31 7.83 168.91 1.98 171.95L0 172.99L1.85 174.26C7.4 178.07 13.64 181.53 20.4 184.56C55.56 200.29 97.61 201.45 120.37 187.33Z" fill="#00928F"/>
<path d="M126.54 213.52L126.96 212.83L126.57 212.13C125.8 210.72 125.17 209.39 124.62 208.07C123.98 206.5 123.41 204.87 122.95 203.23L122.74 202.46L122 202.31C95.6501 196.94 56.1401 212.47 28.0501 239.24C22.6601 244.38 17.9201 249.76 13.9401 255.22L12.6001 257.07L14.7901 257.35C21.3601 258.17 28.3901 258.36 35.7101 257.9C73.8101 255.52 112.01 236.85 126.54 213.52Z" fill="#00928F"/>
<path d="M139.22 229.68C137.98 228.58 136.8 227.38 135.71 226.12L135.2 225.53L134.46 225.74C108.58 233.28 79.6302 265.73 65.6102 302.91C62.9202 310.05 60.9002 317.09 59.6202 323.86L59.1802 326.15L61.2602 325.37C67.4902 323.03 73.8802 319.9 80.2602 316.06C113.45 296.06 139.92 261.41 143.22 233.68L143.32 232.87L142.68 232.42C141.4 231.51 140.27 230.61 139.22 229.68Z" fill="#00928F"/>
<path d="M325.41 209.55C331.39 207.92 337.46 205.92 342.4 203.67C343.05 197.31 343 180.97 342.95 179.15C338.19 176.7 332.67 174.11 326.92 172.18C316.35 168.65 301.16 167.06 290.67 166.19C289.35 157.42 290.24 162.08 287.92 153.21C297.27 147.74 310.58 139.6 318.83 131.62C323.4 127.19 327.37 122.7 330.74 118.25C327.81 110.51 324.4 103.03 320.51 95.88C315.2 96.09 309.57 96.72 303.61 97.89C292.72 100.03 278.6 106.19 268.95 110.65C263.9 103.58 266.75 107.23 260.78 100.55C266.61 91.07 274.76 77.26 278.5 66.11C280.57 59.95 281.8 54.57 282.8 48.97C277.91 44.61 272.77 40.54 267.42 36.79L231.2 103.24C235.1 106.27 238.82 109.6 242.31 113.29C260.2 132.26 270.06 157.48 270.06 184.31C270.06 211.14 260.2 236.36 242.31 255.34C224.42 274.31 200.62 284.76 175.32 284.76C161.9 284.76 148.93 281.78 137.02 276.19L100.55 343.15C106.12 346.11 111.87 348.75 117.77 351.05C121.4 347.48 125.02 343.43 128.57 338.87C135.61 329.81 142.72 315.45 147.4 305.46C155.56 307.44 151.15 306.58 159.78 307.63C161.06 318.86 163.18 335.01 167.07 346.11C169.09 351.87 171.37 357.89 173.81 362.62C174.31 362.63 190.6 362.05 198.04 360.99C199.71 355.95 201.14 349.7 202.28 343.79C204.49 332.28 204.4 316.08 204.11 304.93C212.19 302.61 207.92 304.04 216 300.67C222.11 309.95 231.13 323.16 239.47 331.02C243.9 335.19 248.82 339.02 253.17 342.03C260.29 338.08 267.12 333.63 273.6 328.68C272.85 323.29 271.19 317.37 269.53 311.44C266.39 300.18 259.14 285.92 253.95 276.22C260.06 270.16 256.92 273.55 262.56 266.55C272.06 271.71 285.88 278.87 296.72 281.65C302.62 283.16 308.71 284.36 313.99 284.84C318.45 277.95 322.47 270.71 325.98 263.17C322.88 258.7 318.76 253.91 314.59 249.4C306.82 241.02 294.11 232.05 285.22 226.06C287.94 217.66 286.66 222.22 288.55 213.23C299.24 213.04 314.6 212.49 325.41 209.55Z" fill="#0065A4"/>
<path d="M745.48 323.86L744.64 326.43C743.57 329.56 742.1 331.89 740.21 333.45C738.32 334.99 736.1 335.77 733.57 335.77C731.54 335.77 729.67 335.57 727.94 335.16V346.51C730.31 347.05 732.74 347.31 735.21 347.31C740.24 347.31 744.64 345.95 748.41 343.23C752.18 340.51 755.08 336.41 757.11 330.94L779.3 271.79H763.96L754.25 301.3C753.25 304.15 752.58 307.18 752.23 310.4H751.95C751.64 306.9 751.06 303.86 750.21 301.3L740.32 271.79H724.65L745.48 323.86ZM711.6 324.32C713.96 323.76 716.3 322.74 718.62 321.27V309.03C716.27 310.6 713.93 311.74 711.58 312.48C709.23 313.22 706.68 313.58 703.93 313.58C696.48 313.58 692.77 308.45 692.77 298.2C692.77 287.63 696.49 282.34 703.93 282.34C705.87 282.34 707.81 282.63 709.74 283.21C711.68 283.78 713.77 284.53 716.03 285.43L720.25 274.36C715.44 271.99 709.99 270.8 703.93 270.8C695.64 270.8 689.28 273.15 684.83 277.86C680.4 282.57 678.17 289.37 678.17 298.29C678.17 316.21 686.33 325.17 702.66 325.17C706.26 325.17 709.24 324.89 711.6 324.32ZM667.96 290.03C667.96 283.81 666.38 279.04 663.22 275.75C660.07 272.45 655.44 270.8 649.34 270.8C645.77 270.8 642.6 271.45 639.79 272.75C636.99 274.04 634.8 275.96 633.2 278.49H632.4L630.48 271.78H619.55V324.23H633.86V299.56C633.86 293.37 634.75 288.94 636.53 286.26C638.32 283.59 641.21 282.25 645.21 282.25C648.15 282.25 650.29 283.19 651.63 285.09C652.97 286.98 653.65 289.82 653.65 293.6V324.23H667.96V290.03V290.03ZM597.95 324.25C600.8 323.64 603.47 322.71 605.97 321.46V310.39C602.9 311.83 599.96 312.88 597.15 313.54C594.33 314.19 591.35 314.52 588.19 314.52C584.13 314.52 580.97 313.38 578.71 311.1C576.46 308.81 575.26 305.64 575.1 301.57H608.92V294.63C608.92 287.18 606.86 281.35 602.73 277.13C598.6 272.91 592.84 270.8 585.42 270.8C577.67 270.8 571.59 273.2 567.2 277.99C562.81 282.8 560.61 289.59 560.61 298.37C560.61 306.91 562.98 313.5 567.74 318.17C572.49 322.83 579.09 325.16 587.53 325.16C591.64 325.17 595.11 324.86 597.95 324.25ZM592.75 283.86C594.54 285.78 595.46 288.52 595.52 292.05H575.44C575.69 288.52 576.68 285.78 578.39 283.86C580.11 281.94 582.49 280.98 585.52 280.98C588.56 280.98 590.97 281.94 592.75 283.86ZM529.59 279.48C534.78 279.48 537.38 282.64 537.38 288.96C537.38 291.81 536.75 294.06 535.51 295.71C534.26 297.37 532.28 298.2 529.6 298.2C526.95 298.2 524.97 297.37 523.67 295.71C522.37 294.06 521.72 291.81 521.72 288.96C521.71 282.64 524.34 279.48 529.59 279.48ZM519.15 326.74C520.92 325.5 523.11 324.89 525.74 324.89H533.16C536.75 324.89 539.41 325.26 541.13 326.01C542.85 326.76 543.7 328.12 543.7 330.09C543.7 332.53 542.25 334.45 539.34 335.86C536.44 337.26 532.42 337.97 527.29 337.97C523.88 337.97 521.23 337.4 519.34 336.28C517.45 335.15 516.5 333.61 516.5 331.63C516.5 329.61 517.39 327.98 519.15 326.74ZM538.69 271.78C538.13 271.66 536.84 271.47 534.82 271.2C532.8 270.93 531.06 270.8 529.58 270.8C522.67 270.8 517.36 272.36 513.63 275.49C509.91 278.62 508.05 283.04 508.05 288.76C508.05 292.32 508.85 295.42 510.47 298.04C512.08 300.67 514.26 302.57 517.01 303.76C514.81 305.05 513.14 306.35 511.99 307.68C510.83 309.01 510.25 310.68 510.25 312.68C510.25 314.27 510.8 315.78 511.89 317.2C512.98 318.63 514.26 319.65 515.73 320.28C511.92 321.19 509.03 322.7 507.05 324.83C505.08 326.96 504.1 329.6 504.1 332.76C504.1 337.35 506.03 340.93 509.89 343.47C513.75 346.02 519.34 347.3 526.66 347.3C536.23 347.3 543.57 345.61 548.68 342.24C553.79 338.86 556.35 334.11 556.35 327.98C556.35 323.2 554.84 319.57 551.82 317.09C548.8 314.62 544.42 313.39 538.67 313.39H529.75C524.5 313.39 521.88 312.36 521.88 310.29C521.88 308.92 522.61 307.67 524.08 306.54L526.19 306.78L528.77 306.92C535.74 306.92 541.19 305.35 545.11 302.21C549.04 299.06 551 294.68 551 289.05C551 286.14 550.25 283.51 548.75 281.17L556.95 279.06V271.79H538.69V271.78ZM459.99 295.71C464.87 279.92 467.82 270.03 468.86 266.02C469.11 267.14 469.52 268.67 470.1 270.62C470.68 272.56 473.27 280.92 477.87 295.71H459.99ZM501.98 324.23L477.68 255.37H459.9L435.7 324.23H451.36L456.33 307.91H481.33L486.3 324.23H501.98Z" fill="black"/>
<path d="M1026.47 206.14C1025.33 205.17 1024.76 203.67 1024.76 201.63V176.35H1039.44V165.61H1024.76V154.45H1015.61L1011.48 165.51L1003.6 170.29V176.34H1010.44V201.62C1010.44 207.41 1011.75 211.75 1014.36 214.64C1016.97 217.53 1021.14 218.97 1026.86 218.97C1032.05 218.97 1036.43 218.18 1039.99 216.58V205.93C1036.49 207.02 1033.49 207.57 1030.99 207.57C1029.12 207.59 1027.61 207.11 1026.47 206.14ZM996.09 183.86C996.09 177.64 994.51 172.87 991.36 169.58C988.2 166.28 983.57 164.63 977.47 164.63C973.91 164.63 970.73 165.28 967.93 166.58C965.13 167.87 962.93 169.79 961.34 172.32H960.55L958.63 165.61H947.7V218.06H962V193.39C962 187.2 962.89 182.77 964.67 180.09C966.45 177.42 969.34 176.08 973.35 176.08C976.29 176.08 978.43 177.02 979.78 178.92C981.12 180.81 981.8 183.65 981.8 187.43V218.06H996.1V183.86H996.09ZM926.09 218.07C928.93 217.46 931.6 216.53 934.11 215.28V204.21C931.05 205.65 928.11 206.7 925.29 207.36C922.48 208.01 919.49 208.34 916.33 208.34C912.27 208.34 909.11 207.2 906.86 204.92C904.61 202.63 903.4 199.46 903.25 195.39H937.06V188.45C937.06 181 935 175.17 930.87 170.95C926.74 166.73 920.97 164.62 913.55 164.62C905.8 164.62 899.73 167.02 895.33 171.82C890.94 176.62 888.74 183.41 888.74 192.2C888.74 200.74 891.11 207.33 895.87 212C900.62 216.66 907.22 218.99 915.67 218.99C919.77 218.99 923.24 218.69 926.09 218.07ZM920.88 177.69C922.66 179.61 923.58 182.35 923.65 185.88H903.57C903.81 182.35 904.8 179.61 906.52 177.69C908.24 175.77 910.61 174.81 913.65 174.81C916.69 174.8 919.1 175.76 920.88 177.69ZM846.03 191.74C846.03 186.3 846.9 182.33 848.63 179.82C850.37 177.32 852.99 176.07 856.49 176.07C859.21 176.07 861.2 177.01 862.47 178.91C863.74 180.8 864.37 183.64 864.37 187.42V218.05H878.72V183.86C878.72 177.14 877.2 172.25 874.15 169.2C871.1 166.15 866.6 164.63 860.66 164.63C857.22 164.63 854.13 165.3 851.4 166.65C848.66 167.99 846.59 169.88 845.19 172.32H843.92C841.14 167.19 835.82 164.63 827.97 164.63C824.53 164.63 821.48 165.31 818.82 166.67C816.16 168.03 814.13 169.92 812.72 172.32H811.93L810.01 165.61H799.08V218.06H813.38V193.39C813.38 187.23 814.21 182.81 815.87 180.12C817.52 177.43 820.18 176.09 823.84 176.09C826.56 176.09 828.55 177.03 829.82 178.93C831.09 180.82 831.72 183.66 831.72 187.44V218.07H846.02V191.74H846.03ZM786.15 183.86C786.15 177.64 784.57 172.87 781.42 169.58C778.26 166.28 773.63 164.63 767.53 164.63C763.97 164.63 760.79 165.28 757.98 166.58C755.18 167.87 752.99 169.79 751.39 172.32H750.6L748.68 165.61H737.74V218.06H752.05V193.39C752.05 187.2 752.94 182.77 754.72 180.09C756.5 177.42 759.39 176.08 763.4 176.08C766.34 176.08 768.48 177.02 769.83 178.92C771.17 180.81 771.85 183.65 771.85 187.43V218.06H786.15V183.86V183.86ZM724.34 177.34C722.27 173.24 719.32 170.1 715.47 167.91C711.62 165.72 707.18 164.63 702.15 164.63C694.05 164.63 687.77 167 683.3 171.76C678.83 176.51 676.59 183.17 676.59 191.74C676.59 197.24 677.62 202.06 679.69 206.19C681.75 210.32 684.71 213.48 688.56 215.69C692.4 217.89 696.84 218.99 701.88 218.99C709.92 218.99 716.19 216.59 720.69 211.77C725.2 206.96 727.45 200.28 727.45 191.74C727.43 186.23 726.4 181.43 724.34 177.34ZM693.7 180.03C695.39 177.46 698.14 176.16 701.95 176.16C705.8 176.16 708.57 177.46 710.25 180.06C711.94 182.66 712.78 186.55 712.78 191.74C712.78 196.96 711.94 200.89 710.27 203.53C708.6 206.18 705.86 207.49 702.04 207.49C698.2 207.49 695.42 206.17 693.72 203.51C692.02 200.85 691.17 196.92 691.17 191.74C691.17 186.51 692.02 182.61 693.7 180.03ZM657.91 167.32C655.14 169.12 652.95 171.49 651.32 174.43H650.62L648.51 165.6H637.67V218.05H651.97V191.36C651.97 187.14 653.24 183.86 655.8 181.51C658.35 179.16 661.9 177.99 666.47 177.99C668.12 177.99 669.53 178.15 670.69 178.46L671.77 165.04C670.49 164.75 668.87 164.62 666.94 164.62C663.69 164.63 660.68 165.53 657.91 167.32ZM624.47 165.61H610.17V218.06H624.47V165.61ZM617.34 159.09C619.94 159.09 621.88 158.47 623.18 157.24C624.48 156 625.13 154.28 625.13 152.05C625.13 147.39 622.53 145.06 617.35 145.06C612.16 145.06 609.56 147.39 609.56 152.05C609.55 156.75 612.14 159.09 617.34 159.09ZM583.34 218.05L603.32 165.6H588.36L578.28 195.48C577.03 199.64 576.32 203.22 576.16 206.22H575.88C575.6 202.84 574.89 199.26 573.77 195.48L563.64 165.6H548.68L568.66 218.05H583.34ZM544.09 183.86C544.09 177.64 542.52 172.87 539.36 169.58C536.2 166.28 531.57 164.63 525.48 164.63C521.91 164.63 518.73 165.28 515.93 166.58C513.13 167.87 510.93 169.79 509.34 172.32H508.54L506.62 165.61H495.69V218.06H509.99V193.39C509.99 187.2 510.88 182.77 512.66 180.09C514.44 177.42 517.34 176.08 521.34 176.08C524.28 176.08 526.43 177.02 527.77 178.92C529.11 180.81 529.79 183.65 529.79 187.43V218.06H544.09V183.86V183.86ZM483.82 206.04H458.87V188.35H482.09V176.44H458.87V161.38H483.82V149.46H444.33V218.04H483.82V206.04Z" fill="black"/>
<path d="M876.53 77.68C876.53 71.46 874.95 66.69 871.8 63.4C868.64 60.1 864.01 58.45 857.91 58.45C854.35 58.45 851.17 59.1 848.36 60.4C845.56 61.69 843.37 63.61 841.77 66.14H840.98L839.06 59.43H828.12V111.88H842.43V87.2C842.43 81.01 843.32 76.58 845.1 73.9C846.88 71.23 849.77 69.89 853.78 69.89C856.72 69.89 858.86 70.83 860.21 72.73C861.55 74.62 862.23 77.46 862.23 81.24V111.87H876.53V77.68V77.68ZM801.03 91.89C801.03 95.05 800.04 97.58 798.05 99.49C796.07 101.39 793.42 102.35 790.1 102.35C785.47 102.35 783.16 100.33 783.16 96.3C783.16 93.48 784.18 91.39 786.21 90.01C788.24 88.63 791.34 87.88 795.5 87.76L801.04 87.57V91.89H801.03ZM815.24 111.87V76.93C815.24 70.67 813.37 66.02 809.61 62.95C805.86 59.89 800.46 58.36 793.43 58.36C786.08 58.36 779.39 59.94 773.35 63.09L778.09 72.75C783.75 70.22 788.67 68.95 792.87 68.95C798.31 68.95 801.03 71.61 801.03 76.92V79.22L791.93 79.51C784.08 79.79 778.21 81.25 774.32 83.89C770.42 86.53 768.48 90.63 768.48 96.2C768.48 101.52 769.92 105.62 772.82 108.49C775.71 111.37 779.67 112.8 784.71 112.8C788.81 112.8 792.13 112.21 794.68 111.04C797.23 109.87 799.71 107.76 802.12 104.73H802.49L805.26 111.86H815.24V111.87ZM750.69 111.9C753.53 111.29 756.2 110.36 758.71 109.11V98.04C755.65 99.48 752.71 100.53 749.89 101.19C747.08 101.84 744.09 102.17 740.93 102.17C736.87 102.17 733.71 101.03 731.46 98.75C729.21 96.46 728 93.29 727.84 89.22H761.66V82.28C761.66 74.83 759.6 69 755.47 64.78C751.34 60.56 745.57 58.45 738.16 58.45C730.41 58.45 724.34 60.85 719.94 65.65C715.55 70.45 713.35 77.24 713.35 86.03C713.35 94.57 715.72 101.16 720.48 105.83C725.23 110.49 731.83 112.82 740.28 112.82C744.37 112.81 747.84 112.51 750.69 111.9ZM745.48 71.51C747.26 73.43 748.18 76.17 748.24 79.7H728.16C728.41 76.17 729.4 73.43 731.12 71.51C732.84 69.59 735.21 68.63 738.25 68.63C741.29 68.63 743.7 69.59 745.48 71.51ZM688.54 73.76C690.12 76.34 690.91 80.21 690.91 85.37C690.91 95.94 687.71 101.23 681.3 101.23C677.67 101.23 675.02 100.01 673.35 97.58C671.68 95.14 670.84 91.11 670.84 85.48V83.93C670.9 78.93 671.75 75.34 673.37 73.17C675 71 677.58 69.91 681.11 69.91C684.48 69.89 686.96 71.18 688.54 73.76ZM696.02 109.58C699.05 107.42 701.39 104.28 703.04 100.15C704.68 96.02 705.5 91.16 705.5 85.57C705.5 77.06 703.75 70.42 700.24 65.63C696.74 60.85 691.89 58.46 685.7 58.46C679.13 58.46 674.18 61.06 670.83 66.24H670.17L668.15 59.44H656.52V134.96H670.82V113.71C670.82 113.02 670.57 110.48 670.07 106.11H670.82C674.32 110.59 679.15 112.82 685.32 112.82C689.42 112.81 692.99 111.73 696.02 109.58ZM643.12 71.16C641.05 67.06 638.1 63.92 634.25 61.73C630.41 59.54 625.97 58.45 620.93 58.45C612.83 58.45 606.54 60.82 602.07 65.58C597.6 70.33 595.36 76.99 595.36 85.56C595.36 91.06 596.4 95.88 598.46 100.01C600.53 104.14 603.48 107.3 607.33 109.51C611.18 111.71 615.61 112.81 620.65 112.81C628.69 112.81 634.96 110.41 639.46 105.59C643.97 100.78 646.22 94.1 646.22 85.56C646.21 80.06 645.18 75.26 643.12 71.16ZM612.49 73.85C614.18 71.28 616.93 69.98 620.75 69.98C624.59 69.98 627.36 71.28 629.05 73.88C630.75 76.48 631.59 80.37 631.59 85.56C631.59 90.78 630.75 94.71 629.08 97.35C627.41 100 624.66 101.31 620.85 101.31C617 101.31 614.23 99.99 612.52 97.33C610.82 94.67 609.97 90.74 609.97 85.56C609.95 80.33 610.8 76.44 612.49 73.85ZM576.69 61.15C573.92 62.94 571.73 65.32 570.1 68.26H569.39L567.28 59.43H556.44V111.88H570.74V85.19C570.74 80.97 572.02 77.69 574.57 75.34C577.12 72.99 580.68 71.82 585.24 71.82C586.9 71.82 588.31 71.98 589.46 72.29L590.54 58.87C589.26 58.58 587.65 58.45 585.71 58.45C582.47 58.45 579.46 59.35 576.69 61.15ZM543.31 111.87V59.42H529V84.09C529 90.28 528.11 94.72 526.33 97.39C524.54 100.06 521.65 101.4 517.65 101.4C514.71 101.4 512.57 100.46 511.23 98.57C509.89 96.67 509.21 93.84 509.21 90.05V59.42H494.9V93.62C494.9 99.81 496.47 104.56 499.59 107.85C502.72 111.15 507.36 112.8 513.52 112.8C517.12 112.8 520.32 112.13 523.14 110.8C525.95 109.48 528.12 107.59 529.66 105.15H530.41L532.33 111.86H543.31V111.87ZM483.82 99.87H458.87V82.18H482.09V70.27H458.87V55.21H483.82V43.29H444.33V111.87H483.82V99.87Z" fill="black"/>
</svg>
