<svg width="890" height="233" viewBox="0 0 890 233" fill="none" xmlns="http://www.w3.org/2000/svg">
<path d="M493.239 147.972V167.365H454.458V179.482H485.967V198.872H454.458V212.202H493.239V232.805H429.009V147.972H493.239Z" fill="white"/>
<path fill-rule="evenodd" clip-rule="evenodd" d="M160.36 232.805L165.553 216.078H188.66L193.535 232.805H220.564L193.482 147.972H165.5L133.308 232.805H160.36ZM170.058 197.579L177.054 172.984L180.552 185.282L184.049 197.579H170.058Z" fill="white"/>
<path d="M36.3569 232.805V147.972H69.4491L81.3623 191.704L93.2754 147.972H126.037V232.805H103.865V173.619L88.9735 232.805H73.4201L58.8596 173.619V232.805H36.3569Z" fill="white"/>
<path d="M336.905 232.805H311.456V147.972H336.905V232.805Z" fill="white"/>
<path fill-rule="evenodd" clip-rule="evenodd" d="M300.057 185.959C302.037 182.208 303.027 177.883 303.027 172.984C303.027 165.481 300.318 159.436 294.898 154.851C289.479 150.265 281.924 147.972 272.127 147.972H227.835V232.805H253.285V200.084H262.122L274.524 232.805H303.392L288.02 195.808C294.065 192.994 298.077 189.711 300.057 185.959ZM272.908 180.227C270.928 181.582 268.27 181.905 265.039 181.905H259.162H253.285V166.151H265.925C272.595 166.151 275.93 168.764 275.93 174.183C275.878 176.84 274.888 178.82 272.908 180.227Z" fill="white"/>
<path d="M346.6 147.972V232.805H368.447V182.168L397.467 232.805H419.313V147.972H398.445V192.69L372.36 147.972H346.6Z" fill="white"/>
<path d="M493.239 0.12207V31.6312H430.22V52.2333L481.12 52.1565V82.5305H430.22V105.556H493.239V138.277H389.016V0.12207H493.239Z" fill="white"/>
<path d="M314.704 47.9577C330.817 51.3334 342.219 54.2974 348.995 56.932C355.77 59.5667 361.389 64.0127 366.016 70.3524C370.56 76.692 372.791 84.1844 372.791 92.747C372.791 106.25 367.338 117.282 356.266 125.68C345.194 134.078 330.734 138.277 312.804 138.277C280.001 138.277 259.757 124.692 252.073 97.44L290.412 90.6063C293.634 101.392 301.98 106.826 315.283 106.826C325.611 106.826 330.817 104.109 330.817 98.5927C330.817 95.711 329.577 93.4057 327.181 91.8413C324.785 90.1947 320.488 88.795 314.291 87.56C290.66 83.0317 275.539 77.1037 268.846 69.8583C262.154 62.613 258.766 54.0504 258.766 44.2527C258.766 31.5734 263.641 21.117 273.226 12.7191C282.893 4.32106 296.692 0.12207 314.787 0.12207C342.137 0.12207 360.232 11.1547 369.073 33.0554L334.865 43.347C331.312 34.3727 324.124 29.9267 313.3 29.9267C304.293 29.9267 299.831 32.6437 299.831 38.2424C299.831 40.7124 300.823 42.606 302.889 44.0057C304.872 45.4054 308.838 46.7227 314.704 47.9577Z" fill="white"/>
<path d="M238.742 138.277H196.326V0.12207H238.742V138.277Z" fill="white"/>
<path d="M111.411 0.12207L131.909 79.7933L151.289 0.12207H183.76L147.086 138.277H111.441L92.1218 62.0819L73.8607 138.277H36.3566L0 0.12207H39.9084L59.2579 79.6422L78.0934 0.12207H111.411Z" fill="white"/>
<path d="M539.196 0L549.265 28.4646L559.28 0H569.888V39.2466H561.784V28.5185L562.592 10.0003L552.011 39.2466H546.465L535.911 10.0273L536.719 28.5185V39.2466H528.642V0H539.196Z" fill="white"/>
<path d="M599.557 31.1601H585.396L582.703 39.2466H574.115L588.707 0H596.192L610.864 39.2466H602.276L599.557 31.1601ZM587.576 24.61H597.376L592.449 9.91948L587.576 24.61Z" fill="white"/>
<path d="M629.037 24.8796H622.603V39.2466H614.526V0H629.091C633.722 0 637.294 1.03328 639.806 3.09984C642.319 5.1664 643.576 8.08653 643.576 11.8602C643.576 14.5378 642.992 16.7751 641.826 18.5721C640.677 20.3511 638.927 21.7707 636.576 22.831L645.056 38.8693V39.2466H636.387L629.037 24.8796ZM622.603 18.3295H629.118C631.146 18.3295 632.717 17.8173 633.83 16.793C634.942 15.7508 635.499 14.3222 635.499 12.5072C635.499 10.6563 634.969 9.20068 633.91 8.14044C632.869 7.08021 631.263 6.55009 629.091 6.55009H622.603V18.3295Z" fill="white"/>
<path d="M658.329 39.2466H650.253V0H658.329V39.2466Z" fill="white"/>
<path d="M697.717 39.2466H689.641L673.918 13.4236V39.2466H665.841V0H673.918L689.668 25.8769V0H697.717V39.2466Z" fill="white"/>
<path d="M728.356 22.238H712.848V32.7505H731.048V39.2466H704.771V0H730.994V6.55009H712.848V15.9035H728.356V22.238Z" fill="white"/>
<path d="M537.231 103.651H529.154V64.4048H537.231V103.651Z" fill="white"/>
<path d="M576.619 103.651H568.542L552.819 77.8284V103.651H544.742V64.4048H552.819L568.569 90.2817V64.4048H576.619V103.651Z" fill="white"/>
<path d="M607.257 87.6131H591.749V103.651H583.672V64.4048H609.195V70.9548H591.749V81.09H607.257V87.6131Z" fill="white"/>
<path d="M646.08 84.9176C646.08 88.7812 645.397 92.1685 644.033 95.0797C642.669 97.9908 640.713 100.237 638.164 101.818C635.633 103.4 632.726 104.19 629.441 104.19C626.193 104.19 623.294 103.409 620.745 101.845C618.196 100.282 616.222 98.0537 614.822 95.1605C613.422 92.2494 612.713 88.9069 612.695 85.1332V83.1925C612.695 79.3289 613.386 75.9326 614.768 73.0034C616.168 70.0563 618.134 67.8011 620.664 66.2377C623.213 64.6563 626.121 63.8656 629.387 63.8656C632.654 63.8656 635.553 64.6563 638.083 66.2377C640.632 67.8011 642.597 70.0563 643.98 73.0034C645.38 75.9326 646.08 79.3199 646.08 83.1655V84.9176ZM637.895 83.1386C637.895 79.0234 637.159 75.8966 635.687 73.7582C634.216 71.6197 632.116 70.5505 629.387 70.5505C626.677 70.5505 624.586 71.6108 623.114 73.7312C621.643 75.8337 620.898 78.9246 620.88 83.0038V84.9176C620.88 88.9249 621.616 92.0337 623.087 94.2441C624.559 96.4544 626.677 97.5595 629.441 97.5595C632.151 97.5595 634.233 96.4993 635.687 94.3788C637.141 92.2404 637.877 89.1316 637.895 85.0524V83.1386Z" fill="white"/>
<path d="M666.46 89.2843H660.026V103.651H651.949V64.4048H666.514C671.145 64.4048 674.716 65.438 677.229 67.5046C679.742 69.5711 680.998 72.4913 680.998 76.265C680.998 78.9425 680.415 81.1798 679.248 82.9768C678.1 84.7559 676.35 86.1755 673.998 87.2357L682.479 103.274V103.651H673.81L666.46 89.2843ZM660.026 82.7342H666.541C668.569 82.7342 670.14 82.2221 671.252 81.1978C672.365 80.1555 672.922 78.7269 672.922 76.9119C672.922 75.061 672.392 73.6054 671.333 72.5452C670.292 71.485 668.686 70.9548 666.514 70.9548H660.026V82.7342Z" fill="white"/>
<path d="M697.717 64.4048L707.787 92.8694L717.802 64.4048H728.409V103.651H720.306V92.9233L721.113 74.4051L710.533 103.651H704.987L694.433 74.4321L695.241 92.9233V103.651H687.164V64.4048H697.717Z" fill="white"/>
<path d="M758.078 95.5649H743.917L741.225 103.651H732.636L747.228 64.4048H754.713L769.386 103.651H760.798L758.078 95.5649ZM746.098 89.0148H755.898L750.971 74.3242L746.098 89.0148Z" fill="white"/>
<path d="M799.324 70.9548H787.316V103.651H779.24V70.9548H767.394V64.4048H799.324V70.9548Z" fill="white"/>
<path d="M812.543 103.651H804.466V64.4048H812.543V103.651Z" fill="white"/>
<path d="M852.254 84.9176C852.254 88.7812 851.572 92.1685 850.208 95.0797C848.844 97.9908 846.888 100.237 844.339 101.818C841.808 103.4 838.901 104.19 835.616 104.19C832.367 104.19 829.469 103.409 826.92 101.845C824.371 100.282 822.397 98.0537 820.997 95.1605C819.597 92.2494 818.888 88.9069 818.87 85.1332V83.1925C818.87 79.3289 819.561 75.9326 820.943 73.0034C822.343 70.0563 824.308 67.8011 826.839 66.2377C829.388 64.6563 832.295 63.8656 835.562 63.8656C838.829 63.8656 841.727 64.6563 844.258 66.2377C846.807 67.8011 848.772 70.0563 850.154 73.0034C851.554 75.9326 852.254 79.3199 852.254 83.1655V84.9176ZM844.07 83.1386C844.07 79.0234 843.334 75.8966 841.862 73.7582C840.39 71.6197 838.29 70.5505 835.562 70.5505C832.852 70.5505 830.761 71.6108 829.289 73.7312C827.817 75.8337 827.072 78.9246 827.055 83.0038V84.9176C827.055 88.9249 827.79 92.0337 829.262 94.2441C830.734 96.4544 832.852 97.5595 835.616 97.5595C838.326 97.5595 840.408 96.4993 841.862 94.3788C843.316 92.2404 844.052 89.1316 844.07 85.0524V83.1386Z" fill="white"/>
<path d="M890 103.651H881.923L866.2 77.8284V103.651H858.123V64.4048H866.2L881.95 90.2817V64.4048H890V103.651Z" fill="white"/>
<path d="M548.969 157.759C548.969 156.232 548.431 155.064 547.354 154.255C546.277 153.429 544.338 152.566 541.538 151.667C538.738 150.751 536.522 149.852 534.888 148.972C530.437 146.564 528.212 143.32 528.212 139.241C528.212 137.121 528.804 135.234 529.988 133.581C531.191 131.909 532.905 130.607 535.131 129.672C537.374 128.738 539.887 128.27 542.669 128.27C545.469 128.27 547.964 128.783 550.154 129.807C552.343 130.813 554.039 132.242 555.242 134.093C556.463 135.944 557.073 138.046 557.073 140.4H548.996C548.996 138.603 548.431 137.211 547.3 136.222C546.169 135.216 544.581 134.713 542.534 134.713C540.56 134.713 539.026 135.135 537.931 135.98C536.836 136.806 536.288 137.902 536.288 139.268C536.288 140.544 536.926 141.613 538.2 142.476C539.492 143.338 541.386 144.147 543.881 144.902C548.475 146.285 551.823 148.002 553.923 150.05C556.023 152.099 557.073 154.65 557.073 157.705C557.073 161.102 555.789 163.77 553.223 165.711C550.656 167.634 547.201 168.595 542.858 168.595C539.842 168.595 537.096 168.047 534.619 166.951C532.142 165.837 530.249 164.318 528.938 162.396C527.646 160.473 527 158.244 527 155.711H535.104C535.104 160.041 537.688 162.207 542.858 162.207C544.778 162.207 546.277 161.821 547.354 161.048C548.431 160.257 548.969 159.161 548.969 157.759Z" fill="white"/>
<path d="M576.08 146.492L584.238 128.81H593.069L580.199 153.824V168.056H571.988V153.824L559.119 128.81H567.976L576.08 146.492Z" fill="white"/>
<path d="M616.545 157.759C616.545 156.232 616.007 155.064 614.93 154.255C613.853 153.429 611.914 152.566 609.115 151.667C606.315 150.751 604.098 149.852 602.465 148.972C598.013 146.564 595.788 143.32 595.788 139.241C595.788 137.121 596.38 135.234 597.565 133.581C598.767 131.909 600.481 130.607 602.707 129.672C604.95 128.738 607.463 128.27 610.245 128.27C613.045 128.27 615.54 128.783 617.73 129.807C619.92 130.813 621.616 132.242 622.818 134.093C624.039 135.944 624.649 138.046 624.649 140.4H616.572C616.572 138.603 616.007 137.211 614.876 136.222C613.745 135.216 612.157 134.713 610.111 134.713C608.136 134.713 606.602 135.135 605.507 135.98C604.412 136.806 603.865 137.902 603.865 139.268C603.865 140.544 604.502 141.613 605.776 142.476C607.068 143.338 608.962 144.147 611.457 144.902C616.052 146.285 619.399 148.002 621.499 150.05C623.599 152.099 624.649 154.65 624.649 157.705C624.649 161.102 623.366 163.77 620.799 165.711C618.232 167.634 614.777 168.595 610.434 168.595C607.418 168.595 604.672 168.047 602.195 166.951C599.718 165.837 597.825 164.318 596.515 162.396C595.222 160.473 594.576 158.244 594.576 155.711H602.68C602.68 160.041 605.265 162.207 610.434 162.207C612.354 162.207 613.853 161.821 614.93 161.048C616.007 160.257 616.545 159.161 616.545 157.759Z" fill="white"/>
<path d="M659.649 135.36H647.641V168.056H639.564V135.36H627.718V128.81H659.649V135.36Z" fill="white"/>
<path d="M687.864 151.047H672.356V161.56H690.556V168.056H664.279V128.81H690.502V135.36H672.356V144.713H687.864V151.047Z" fill="white"/>
<path d="M705.848 128.81L715.917 157.274L725.933 128.81H736.54V168.056H728.436V157.328L729.244 138.81L718.663 168.056H713.117L702.564 138.837L703.371 157.328V168.056H695.294V128.81H705.848Z" fill="white"/>
<path d="M780.909 152.018H765.401V168.056H757.324V128.81H782.847V135.36H765.401V145.495H780.909V152.018Z" fill="white"/>
<path d="M819.732 149.322C819.732 153.186 819.049 156.573 817.685 159.484C816.321 162.396 814.365 164.642 811.816 166.223C809.285 167.805 806.378 168.595 803.093 168.595C799.845 168.595 796.946 167.814 794.397 166.25C791.848 164.687 789.874 162.458 788.474 159.565C787.074 156.654 786.365 153.312 786.347 149.538V147.597C786.347 143.734 787.038 140.337 788.42 137.408C789.82 134.461 791.786 132.206 794.316 130.642C796.865 129.061 799.773 128.27 803.039 128.27C806.306 128.27 809.205 129.061 811.735 130.642C814.284 132.206 816.25 134.461 817.632 137.408C819.032 140.337 819.732 143.725 819.732 147.57V149.322ZM811.547 147.543C811.547 143.428 810.811 140.301 809.339 138.163C807.868 136.024 805.768 134.955 803.039 134.955C800.329 134.955 798.238 136.016 796.766 138.136C795.295 140.238 794.55 143.329 794.532 147.409V149.322C794.532 153.33 795.268 156.438 796.739 158.649C798.211 160.859 800.329 161.964 803.093 161.964C805.803 161.964 807.885 160.904 809.339 158.784C810.793 156.645 811.529 153.536 811.547 149.457V147.543Z" fill="white"/>
<path d="M840.112 153.689H833.678V168.056H825.601V128.81H840.166C844.797 128.81 848.368 129.843 850.881 131.909C853.394 133.976 854.65 136.896 854.65 140.67C854.65 143.347 854.067 145.585 852.9 147.382C851.752 149.161 850.002 150.58 847.65 151.64L856.131 167.679V168.056H847.462L840.112 153.689ZM833.678 147.139H840.193C842.221 147.139 843.792 146.627 844.904 145.603C846.017 144.56 846.574 143.132 846.574 141.317C846.574 139.466 846.044 138.01 844.985 136.95C843.944 135.89 842.338 135.36 840.166 135.36H833.678V147.139Z" fill="white"/>
<path d="M552.227 215.452H536.719V225.965H554.919V232.461H528.642V193.214H554.865V199.764H536.719V209.118H552.227V215.452Z" fill="white"/>
<path d="M589.326 193.214V219.064C589.326 223.359 587.98 226.755 585.288 229.253C582.614 231.751 578.952 233 574.303 233C569.726 233 566.092 231.787 563.4 229.361C560.707 226.935 559.334 223.602 559.28 219.361V193.214H567.357V219.118C567.357 221.688 567.968 223.566 569.188 224.752C570.426 225.92 572.132 226.504 574.303 226.504C578.844 226.504 581.151 224.114 581.223 219.334V193.214H589.326Z" fill="white"/>
<path d="M610.461 218.094H604.026V232.461H595.949V193.214H610.514C615.145 193.214 618.717 194.248 621.23 196.314C623.743 198.381 624.999 201.301 624.999 205.075C624.999 207.752 624.416 209.989 623.249 211.786C622.1 213.565 620.35 214.985 617.999 216.045L626.48 232.084V232.461H617.811L610.461 218.094ZM604.026 211.544H610.541C612.57 211.544 614.14 211.032 615.253 210.007C616.366 208.965 616.922 207.536 616.922 205.721C616.922 203.871 616.393 202.415 615.334 201.355C614.293 200.294 612.686 199.764 610.514 199.764H604.026V211.544Z" fill="white"/>
<path d="M663.364 213.727C663.364 217.591 662.682 220.978 661.318 223.889C659.954 226.8 657.997 229.047 655.449 230.628C652.918 232.209 650.01 233 646.726 233C643.477 233 640.578 232.218 638.03 230.655C635.481 229.092 633.507 226.863 632.107 223.97C630.707 221.059 629.998 217.716 629.98 213.943V212.002C629.98 208.138 630.671 204.742 632.053 201.813C633.453 198.866 635.418 196.611 637.949 195.047C640.498 193.466 643.405 192.675 646.672 192.675C649.938 192.675 652.837 193.466 655.368 195.047C657.917 196.611 659.882 198.866 661.264 201.813C662.664 204.742 663.364 208.129 663.364 211.975V213.727ZM655.179 211.948C655.179 207.833 654.444 204.706 652.972 202.568C651.5 200.429 649.4 199.36 646.672 199.36C643.962 199.36 641.871 200.42 640.399 202.541C638.927 204.643 638.182 207.734 638.164 211.813V213.727C638.164 217.734 638.9 220.843 640.372 223.054C641.844 225.264 643.962 226.369 646.726 226.369C649.436 226.369 651.518 225.309 652.972 223.188C654.426 221.05 655.161 217.941 655.179 213.862V211.948Z" fill="white"/>
<path d="M677.31 218.633V232.461H669.233V193.214H684.525C687.469 193.214 690.053 193.753 692.279 194.832C694.523 195.91 696.246 197.446 697.448 199.441C698.651 201.418 699.252 203.673 699.252 206.207C699.252 210.052 697.933 213.089 695.294 215.317C692.674 217.528 689.039 218.633 684.391 218.633H677.31ZM677.31 212.083H684.525C686.661 212.083 688.285 211.58 689.398 210.573C690.529 209.567 691.094 208.129 691.094 206.261C691.094 204.338 690.529 202.783 689.398 201.597C688.268 200.411 686.706 199.8 684.714 199.764H677.31V212.083Z" fill="white"/>
<path d="M728.409 215.452H712.902V225.965H731.102V232.461H704.825V193.214H731.048V199.764H712.902V209.118H728.409V215.452Z" fill="white"/>
</svg>
